{
	"asset":{
		"generator":"Khronos glTF Blender I/O v4.5.47",
		"version":"2.0"
	},
	"scene":0,
	"scenes":[
		{
			"name":"Scene",
			"nodes":[
				10
			]
		}
	],
	"nodes":[
		{
			"mesh":0,
			"name":"Cube.021"
		},
		{
			"mesh":1,
			"name":"Cube.022"
		},
		{
			"mesh":2,
			"name":"Cube.023"
		},
		{
			"mesh":3,
			"name":"Cube.024"
		},
		{
			"mesh":4,
			"name":"Cube.025"
		},
		{
			"mesh":5,
			"name":"Circle.006"
		},
		{
			"mesh":6,
			"name":"Cube.028"
		},
		{
			"children":[
				5,
				6
			],
			"mesh":7,
			"name":"Cube.029"
		},
		{
			"mesh":8,
			"name":"Cube.030"
		},
		{
			"mesh":9,
			"name":"Text"
		},
		{
			"children":[
				0,
				1,
				2,
				3,
				4,
				7,
				8,
				9
			],
			"mesh":10,
			"name":"Cube.020"
		}
	],
	"materials":[
		{
			"doubleSided":true,
			"name":"Material",
			"pbrMetallicRoughness":{
				"baseColorTexture":{
					"index":0
				},
				"metallicFactor":0,
				"roughnessFactor":0.5
			}
		}
	],
	"meshes":[
		{
			"name":"Cube.028",
			"primitives":[
				{
					"attributes":{
						"POSITION":0,
						"NORMAL":1,
						"TEXCOORD_0":2
					},
					"indices":3,
					"material":0
				}
			]
		},
		{
			"name":"Cube.027",
			"primitives":[
				{
					"attributes":{
						"POSITION":4,
						"NORMAL":5,
						"TEXCOORD_0":6
					},
					"indices":3,
					"material":0
				}
			]
		},
		{
			"name":"Cube.029",
			"primitives":[
				{
					"attributes":{
						"POSITION":7,
						"NORMAL":8,
						"TEXCOORD_0":9
					},
					"indices":3,
					"material":0
				}
			]
		},
		{
			"name":"Cube.030",
			"primitives":[
				{
					"attributes":{
						"POSITION":10,
						"NORMAL":11,
						"TEXCOORD_0":12
					},
					"indices":3,
					"material":0
				}
			]
		},
		{
			"name":"Cube.031",
			"primitives":[
				{
					"attributes":{
						"POSITION":13,
						"NORMAL":14,
						"TEXCOORD_0":15
					},
					"indices":3,
					"material":0
				}
			]
		},
		{
			"name":"Circle.006",
			"primitives":[
				{
					"attributes":{
						"POSITION":16,
						"NORMAL":17,
						"TEXCOORD_0":18
					},
					"indices":19,
					"material":0
				}
			]
		},
		{
			"name":"Cube.038",
			"primitives":[
				{
					"attributes":{
						"POSITION":20,
						"NORMAL":21,
						"TEXCOORD_0":22
					},
					"indices":23,
					"material":0
				}
			]
		},
		{
			"name":"Cube.039",
			"primitives":[
				{
					"attributes":{
						"POSITION":24,
						"NORMAL":25,
						"TEXCOORD_0":26
					},
					"indices":27,
					"material":0
				}
			]
		},
		{
			"name":"Cube.040",
			"primitives":[
				{
					"attributes":{
						"POSITION":28,
						"NORMAL":29,
						"TEXCOORD_0":30
					},
					"indices":31,
					"material":0
				}
			]
		},
		{
			"name":"Text",
			"primitives":[
				{
					"attributes":{
						"POSITION":32,
						"NORMAL":33,
						"TEXCOORD_0":34
					},
					"indices":35,
					"material":0
				}
			]
		},
		{
			"name":"Cube.025",
			"primitives":[
				{
					"attributes":{
						"POSITION":36,
						"NORMAL":37,
						"TEXCOORD_0":38
					},
					"indices":39,
					"material":0
				}
			]
		}
	],
	"textures":[
		{
			"sampler":0,
			"source":0
		}
	],
	"images":[
		{
			"mimeType":"image/png",
			"name":"texture",
			"uri":"texture.png"
		}
	],
	"accessors":[
		{
			"bufferView":0,
			"componentType":5126,
			"count":4,
			"max":[
				1.2282843589782715,
				1.3755195140838623,
				-0.11516868323087692
			],
			"min":[
				0.6567736268043518,
				0.5553162097930908,
				-0.11516868323087692
			],
			"type":"VEC3"
		},
		{
			"bufferView":1,
			"componentType":5126,
			"count":4,
			"type":"VEC3"
		},
		{
			"bufferView":2,
			"componentType":5126,
			"count":4,
			"type":"VEC2"
		},
		{
			"bufferView":3,
			"componentType":5123,
			"count":6,
			"type":"SCALAR"
		},
		{
			"bufferView":4,
			"componentType":5126,
			"count":4,
			"max":[
				1.584190845489502,
				2.087332248687744,
				-0.087000772356987
			],
			"min":[
				1.0126800537109375,
				1.2671289443969727,
				-0.087000772356987
			],
			"type":"VEC3"
		},
		{
			"bufferView":5,
			"componentType":5126,
			"count":4,
			"type":"VEC3"
		},
		{
			"bufferView":6,
			"componentType":5126,
			"count":4,
			"type":"VEC2"
		},
		{
			"bufferView":7,
			"componentType":5126,
			"count":4,
			"max":[
				-1.0289576053619385,
				0.8252835273742676,
				-0.07188260555267334
			],
			"min":[
				-1.2290223836898804,
				0.6211504936218262,
				-0.07188260555267334
			],
			"type":"VEC3"
		},
		{
			"bufferView":8,
			"componentType":5126,
			"count":4,
			"type":"VEC3"
		},
		{
			"bufferView":9,
			"componentType":5126,
			"count":4,
			"type":"VEC2"
		},
		{
			"bufferView":10,
			"componentType":5126,
			"count":4,
			"max":[
				-0.9437309503555298,
				0.6619324684143066,
				-0.07360906898975372
			],
			"min":[
				-1.1437957286834717,
				0.45779943466186523,
				-0.07360906898975372
			],
			"type":"VEC3"
		},
		{
			"bufferView":11,
			"componentType":5126,
			"count":4,
			"type":"VEC3"
		},
		{
			"bufferView":12,
			"componentType":5126,
			"count":4,
			"type":"VEC2"
		},
		{
			"bufferView":13,
			"componentType":5126,
			"count":4,
			"max":[
				-1.0040998458862305,
				0.46662139892578125,
				-0.07031645625829697
			],
			"min":[
				-1.2041646242141724,
				0.26248836517333984,
				-0.07031645625829697
			],
			"type":"VEC3"
		},
		{
			"bufferView":14,
			"componentType":5126,
			"count":4,
			"type":"VEC3"
		},
		{
			"bufferView":15,
			"componentType":5126,
			"count":4,
			"type":"VEC2"
		},
		{
			"bufferView":16,
			"componentType":5126,
			"count":432,
			"max":[
				-0.08105005323886871,
				1.0788207054138184,
				-0.0664714053273201
			],
			"min":[
				-0.46677154302597046,
				0.3956887722015381,
				-0.10044180601835251
			],
			"type":"VEC3"
		},
		{
			"bufferView":17,
			"componentType":5126,
			"count":432,
			"type":"VEC3"
		},
		{
			"bufferView":18,
			"componentType":5126,
			"count":432,
			"type":"VEC2"
		},
		{
			"bufferView":19,
			"componentType":5123,
			"count":840,
			"type":"SCALAR"
		},
		{
			"bufferView":20,
			"componentType":5126,
			"count":24,
			"max":[
				-0.26753681898117065,
				1.04185152053833,
				0.00019152462482452393
			],
			"min":[
				-0.2839307188987732,
				1.0254578590393066,
				-0.11441974341869354
			],
			"type":"VEC3"
		},
		{
			"bufferView":21,
			"componentType":5126,
			"count":24,
			"type":"VEC3"
		},
		{
			"bufferView":22,
			"componentType":5126,
			"count":24,
			"type":"VEC2"
		},
		{
			"bufferView":23,
			"componentType":5123,
			"count":36,
			"type":"SCALAR"
		},
		{
			"bufferView":24,
			"componentType":5126,
			"count":44,
			"max":[
				0.022900134325027466,
				1.1517550945281982,
				-0.0066995769739151
			],
			"min":[
				-0.5486106872558594,
				0.33155179023742676,
				-0.12578971683979034
			],
			"type":"VEC3"
		},
		{
			"bufferView":25,
			"componentType":5126,
			"count":44,
			"type":"VEC3"
		},
		{
			"bufferView":26,
			"componentType":5126,
			"count":44,
			"type":"VEC2"
		},
		{
			"bufferView":27,
			"componentType":5123,
			"count":78,
			"type":"SCALAR"
		},
		{
			"bufferView":28,
			"componentType":5126,
			"count":4,
			"max":[
				1.8538419008255005,
				2.379554033279419,
				-0.06264712661504745
			],
			"min":[
				-1.8538419008255005,
				0.06926846504211426,
				-0.06264712661504745
			],
			"type":"VEC3"
		},
		{
			"bufferView":29,
			"componentType":5126,
			"count":4,
			"type":"VEC3"
		},
		{
			"bufferView":30,
			"componentType":5126,
			"count":4,
			"type":"VEC2"
		},
		{
			"bufferView":31,
			"componentType":5123,
			"count":6,
			"type":"SCALAR"
		},
		{
			"bufferView":32,
			"componentType":5126,
			"count":956,
			"max":[
				0.7482274770736694,
				2.134174346923828,
				-0.024491392076015472
			],
			"min":[
				-1.5487911701202393,
				1.3078510761260986,
				-0.09171535819768906
			],
			"type":"VEC3"
		},
		{
			"bufferView":33,
			"componentType":5126,
			"count":956,
			"type":"VEC3"
		},
		{
			"bufferView":34,
			"componentType":5126,
			"count":956,
			"type":"VEC2"
		},
		{
			"bufferView":35,
			"componentType":5123,
			"count":1800,
			"type":"SCALAR"
		},
		{
			"bufferView":36,
			"componentType":5126,
			"count":44,
			"max":[
				1.9880329370498657,
				2.463169574737549,
				0.12667638063430786
			],
			"min":[
				-1.9880329370498657,
				-0.014346957206726074,
				-0.12667638063430786
			],
			"type":"VEC3"
		},
		{
			"bufferView":37,
			"componentType":5126,
			"count":44,
			"type":"VEC3"
		},
		{
			"bufferView":38,
			"componentType":5126,
			"count":44,
			"type":"VEC2"
		},
		{
			"bufferView":39,
			"componentType":5123,
			"count":78,
			"type":"SCALAR"
		}
	],
	"bufferViews":[
		{
			"buffer":0,
			"byteLength":48,
			"byteOffset":0,
			"target":34962
		},
		{
			"buffer":0,
			"byteLength":48,
			"byteOffset":48,
			"target":34962
		},
		{
			"buffer":0,
			"byteLength":32,
			"byteOffset":96,
			"target":34962
		},
		{
			"buffer":0,
			"byteLength":12,
			"byteOffset":128,
			"target":34963
		},
		{
			"buffer":0,
			"byteLength":48,
			"byteOffset":140,
			"target":34962
		},
		{
			"buffer":0,
			"byteLength":48,
			"byteOffset":188,
			"target":34962
		},
		{
			"buffer":0,
			"byteLength":32,
			"byteOffset":236,
			"target":34962
		},
		{
			"buffer":0,
			"byteLength":48,
			"byteOffset":268,
			"target":34962
		},
		{
			"buffer":0,
			"byteLength":48,
			"byteOffset":316,
			"target":34962
		},
		{
			"buffer":0,
			"byteLength":32,
			"byteOffset":364,
			"target":34962
		},
		{
			"buffer":0,
			"byteLength":48,
			"byteOffset":396,
			"target":34962
		},
		{
			"buffer":0,
			"byteLength":48,
			"byteOffset":444,
			"target":34962
		},
		{
			"buffer":0,
			"byteLength":32,
			"byteOffset":492,
			"target":34962
		},
		{
			"buffer":0,
			"byteLength":48,
			"byteOffset":524,
			"target":34962
		},
		{
			"buffer":0,
			"byteLength":48,
			"byteOffset":572,
			"target":34962
		},
		{
			"buffer":0,
			"byteLength":32,
			"byteOffset":620,
			"target":34962
		},
		{
			"buffer":0,
			"byteLength":5184,
			"byteOffset":652,
			"target":34962
		},
		{
			"buffer":0,
			"byteLength":5184,
			"byteOffset":5836,
			"target":34962
		},
		{
			"buffer":0,
			"byteLength":3456,
			"byteOffset":11020,
			"target":34962
		},
		{
			"buffer":0,
			"byteLength":1680,
			"byteOffset":14476,
			"target":34963
		},
		{
			"buffer":0,
			"byteLength":288,
			"byteOffset":16156,
			"target":34962
		},
		{
			"buffer":0,
			"byteLength":288,
			"byteOffset":16444,
			"target":34962
		},
		{
			"buffer":0,
			"byteLength":192,
			"byteOffset":16732,
			"target":34962
		},
		{
			"buffer":0,
			"byteLength":72,
			"byteOffset":16924,
			"target":34963
		},
		{
			"buffer":0,
			"byteLength":528,
			"byteOffset":16996,
			"target":34962
		},
		{
			"buffer":0,
			"byteLength":528,
			"byteOffset":17524,
			"target":34962
		},
		{
			"buffer":0,
			"byteLength":352,
			"byteOffset":18052,
			"target":34962
		},
		{
			"buffer":0,
			"byteLength":156,
			"byteOffset":18404,
			"target":34963
		},
		{
			"buffer":0,
			"byteLength":48,
			"byteOffset":18560,
			"target":34962
		},
		{
			"buffer":0,
			"byteLength":48,
			"byteOffset":18608,
			"target":34962
		},
		{
			"buffer":0,
			"byteLength":32,
			"byteOffset":18656,
			"target":34962
		},
		{
			"buffer":0,
			"byteLength":12,
			"byteOffset":18688,
			"target":34963
		},
		{
			"buffer":0,
			"byteLength":11472,
			"byteOffset":18700,
			"target":34962
		},
		{
			"buffer":0,
			"byteLength":11472,
			"byteOffset":30172,
			"target":34962
		},
		{
			"buffer":0,
			"byteLength":7648,
			"byteOffset":41644,
			"target":34962
		},
		{
			"buffer":0,
			"byteLength":3600,
			"byteOffset":49292,
			"target":34963
		},
		{
			"buffer":0,
			"byteLength":528,
			"byteOffset":52892,
			"target":34962
		},
		{
			"buffer":0,
			"byteLength":528,
			"byteOffset":53420,
			"target":34962
		},
		{
			"buffer":0,
			"byteLength":352,
			"byteOffset":53948,
			"target":34962
		},
		{
			"buffer":0,
			"byteLength":156,
			"byteOffset":54300,
			"target":34963
		}
	],
	"samplers":[
		{
			"magFilter":9729,
			"minFilter":9987
		}
	],
	"buffers":[
		{
			"byteLength":54456,
			"uri":"board.bin"
		}
	]
}
