{
	"asset":{
		"generator":"Khronos glTF Blender I/O v4.5.47",
		"version":"2.0"
	},
	"scene":0,
	"scenes":[
		{
			"name":"Scene",
			"nodes":[
				20
			]
		}
	],
	"nodes":[
		{
			"mesh":0,
			"name":"Cube.037",
			"rotation":[
				-1.4189488695137698e-07,
				1.4189487274052226e-07,
				-0.7071067690849304,
				0.7071067690849304
			],
			"translation":[
				0.043286826461553574,
				-1.1836827993392944,
				-1.7372688176919837e-08
			]
		},
		{
			"children":[
				0
			],
			"name":"Wing_R",
			"rotation":[
				-8.764494019430913e-09,
				-2.545600068515341e-07,
				-0.03296780586242676,
				0.9994564652442932
			],
			"translation":[
				-3.725290298461914e-09,
				1.1862612962722778,
				4.517157224535729e-17
			]
		},
		{
			"children":[
				1
			],
			"name":"Shoulder_R",
			"rotation":[
				4.070516812504366e-09,
				-3.810553650396287e-09,
				0.7300341725349426,
				0.68341064453125
			],
			"translation":[
				0,
				0.6077808141708374,
				0
			]
		},
		{
			"mesh":1,
			"name":"Cube.036",
			"rotation":[
				-1.4189485852966754e-07,
				-1.4189485852966754e-07,
				0.7071067690849304,
				0.7071067690849304
			],
			"translation":[
				-0.043286826461553574,
				-1.1836827993392944,
				-1.7372686400562998e-08
			]
		},
		{
			"children":[
				3
			],
			"name":"Wing_L",
			"rotation":[
				-8.764494019430913e-09,
				2.545600068515341e-07,
				0.03296780586242676,
				0.9994564652442932
			],
			"translation":[
				3.725290298461914e-09,
				1.1862612962722778,
				4.517157224535729e-17
			]
		},
		{
			"children":[
				4
			],
			"name":"Shoulder_L",
			"rotation":[
				4.070516812504366e-09,
				3.810553650396287e-09,
				-0.7300341725349426,
				0.68341064453125
			],
			"translation":[
				0,
				0.6077808141708374,
				0
			]
		},
		{
			"mesh":2,
			"name":"Cylinder.011",
			"rotation":[
				-0.7071067690849304,
				3.0626614488937776e-07,
				3.0626614488937776e-07,
				0.7071067690849304
			],
			"translation":[
				-0.9327791929244995,
				-0.6411706805229187,
				0.03488829731941223
			]
		},
		{
			"mesh":3,
			"name":"Cylinder.012",
			"rotation":[
				-0.7071067690849304,
				3.0626614488937776e-07,
				3.0626614488937776e-07,
				0.7071067690849304
			],
			"translation":[
				-0.9327791929244995,
				-0.6411706805229187,
				0.03488829731941223
			]
		},
		{
			"mesh":4,
			"name":"Cylinder.013",
			"rotation":[
				-0.7071067690849304,
				3.0626614488937776e-07,
				3.0626614488937776e-07,
				0.7071067690849304
			],
			"translation":[
				-0.9327791929244995,
				-0.6411706805229187,
				0.03488829731941223
			]
		},
		{
			"mesh":5,
			"name":"Cylinder.014",
			"rotation":[
				-0.7071067690849304,
				3.0626614488937776e-07,
				3.0626614488937776e-07,
				0.7071067690849304
			],
			"translation":[
				-0.9327791929244995,
				-0.6411706805229187,
				0.03488829731941223
			]
		},
		{
			"children":[
				6,
				7,
				8,
				9
			],
			"name":"Bone.001",
			"rotation":[
				0.7071067690849304,
				-3.0626614488937776e-07,
				-3.0626614488937776e-07,
				0.7071067690849304
			],
			"translation":[
				0.9327791929244995,
				0.6077808141708374,
				0.6479007005691528
			]
		},
		{
			"mesh":6,
			"name":"Cube.038"
		},
		{
			"mesh":7,
			"name":"Cube.039"
		},
		{
			"mesh":8,
			"name":"Cylinder.006"
		},
		{
			"mesh":9,
			"name":"Cylinder.007",
			"translation":[
				0,
				0,
				0.0067300391383469105
			]
		},
		{
			"mesh":10,
			"name":"Cylinder.008",
			"translation":[
				0,
				0,
				0.0067300391383469105
			]
		},
		{
			"mesh":11,
			"name":"Cylinder.009",
			"translation":[
				0,
				0,
				0.0067300391383469105
			]
		},
		{
			"mesh":12,
			"name":"Cylinder.010",
			"translation":[
				0,
				0,
				0.0067300391383469105
			]
		},
		{
			"children":[
				11,
				12,
				13,
				14,
				15,
				16,
				17
			],
			"mesh":13,
			"name":"Cube.040",
			"translation":[
				0,
				0.5728933215141296,
				0
			]
		},
		{
			"children":[
				2,
				5,
				10,
				18
			],
			"name":"Bone",
			"translation":[
				0,
				-0.5728933215141296,
				0
			]
		},
		{
			"children":[
				19
			],
			"name":"Armature.002"
		}
	],
	"animations":[
		{
			"channels":[
				{
					"sampler":0,
					"target":{
						"node":19,
						"path":"translation"
					}
				},
				{
					"sampler":1,
					"target":{
						"node":19,
						"path":"rotation"
					}
				},
				{
					"sampler":2,
					"target":{
						"node":19,
						"path":"scale"
					}
				},
				{
					"sampler":3,
					"target":{
						"node":2,
						"path":"translation"
					}
				},
				{
					"sampler":4,
					"target":{
						"node":2,
						"path":"rotation"
					}
				},
				{
					"sampler":5,
					"target":{
						"node":2,
						"path":"scale"
					}
				},
				{
					"sampler":6,
					"target":{
						"node":1,
						"path":"translation"
					}
				},
				{
					"sampler":7,
					"target":{
						"node":1,
						"path":"rotation"
					}
				},
				{
					"sampler":8,
					"target":{
						"node":1,
						"path":"scale"
					}
				},
				{
					"sampler":9,
					"target":{
						"node":5,
						"path":"translation"
					}
				},
				{
					"sampler":10,
					"target":{
						"node":5,
						"path":"rotation"
					}
				},
				{
					"sampler":11,
					"target":{
						"node":5,
						"path":"scale"
					}
				},
				{
					"sampler":12,
					"target":{
						"node":4,
						"path":"translation"
					}
				},
				{
					"sampler":13,
					"target":{
						"node":4,
						"path":"rotation"
					}
				},
				{
					"sampler":14,
					"target":{
						"node":4,
						"path":"scale"
					}
				},
				{
					"sampler":15,
					"target":{
						"node":10,
						"path":"translation"
					}
				},
				{
					"sampler":16,
					"target":{
						"node":10,
						"path":"rotation"
					}
				},
				{
					"sampler":17,
					"target":{
						"node":10,
						"path":"scale"
					}
				}
			],
			"name":"Attack",
			"samplers":[
				{
					"input":49,
					"interpolation":"STEP",
					"output":50
				},
				{
					"input":51,
					"interpolation":"LINEAR",
					"output":52
				},
				{
					"input":49,
					"interpolation":"STEP",
					"output":53
				},
				{
					"input":49,
					"interpolation":"STEP",
					"output":54
				},
				{
					"input":49,
					"interpolation":"STEP",
					"output":55
				},
				{
					"input":49,
					"interpolation":"STEP",
					"output":53
				},
				{
					"input":49,
					"interpolation":"STEP",
					"output":56
				},
				{
					"input":49,
					"interpolation":"STEP",
					"output":57
				},
				{
					"input":49,
					"interpolation":"STEP",
					"output":53
				},
				{
					"input":49,
					"interpolation":"STEP",
					"output":58
				},
				{
					"input":49,
					"interpolation":"STEP",
					"output":59
				},
				{
					"input":49,
					"interpolation":"STEP",
					"output":53
				},
				{
					"input":49,
					"interpolation":"STEP",
					"output":60
				},
				{
					"input":49,
					"interpolation":"STEP",
					"output":61
				},
				{
					"input":49,
					"interpolation":"STEP",
					"output":53
				},
				{
					"input":51,
					"interpolation":"LINEAR",
					"output":62
				},
				{
					"input":49,
					"interpolation":"STEP",
					"output":63
				},
				{
					"input":49,
					"interpolation":"STEP",
					"output":53
				}
			]
		},
		{
			"channels":[
				{
					"sampler":0,
					"target":{
						"node":19,
						"path":"translation"
					}
				},
				{
					"sampler":1,
					"target":{
						"node":19,
						"path":"rotation"
					}
				},
				{
					"sampler":2,
					"target":{
						"node":19,
						"path":"scale"
					}
				},
				{
					"sampler":3,
					"target":{
						"node":2,
						"path":"translation"
					}
				},
				{
					"sampler":4,
					"target":{
						"node":2,
						"path":"rotation"
					}
				},
				{
					"sampler":5,
					"target":{
						"node":2,
						"path":"scale"
					}
				},
				{
					"sampler":6,
					"target":{
						"node":1,
						"path":"translation"
					}
				},
				{
					"sampler":7,
					"target":{
						"node":1,
						"path":"rotation"
					}
				},
				{
					"sampler":8,
					"target":{
						"node":1,
						"path":"scale"
					}
				},
				{
					"sampler":9,
					"target":{
						"node":5,
						"path":"translation"
					}
				},
				{
					"sampler":10,
					"target":{
						"node":5,
						"path":"rotation"
					}
				},
				{
					"sampler":11,
					"target":{
						"node":5,
						"path":"scale"
					}
				},
				{
					"sampler":12,
					"target":{
						"node":4,
						"path":"translation"
					}
				},
				{
					"sampler":13,
					"target":{
						"node":4,
						"path":"rotation"
					}
				},
				{
					"sampler":14,
					"target":{
						"node":4,
						"path":"scale"
					}
				},
				{
					"sampler":15,
					"target":{
						"node":10,
						"path":"translation"
					}
				},
				{
					"sampler":16,
					"target":{
						"node":10,
						"path":"rotation"
					}
				},
				{
					"sampler":17,
					"target":{
						"node":10,
						"path":"scale"
					}
				}
			],
			"name":"Attack.001",
			"samplers":[
				{
					"input":49,
					"interpolation":"STEP",
					"output":50
				},
				{
					"input":51,
					"interpolation":"LINEAR",
					"output":52
				},
				{
					"input":49,
					"interpolation":"STEP",
					"output":53
				},
				{
					"input":49,
					"interpolation":"STEP",
					"output":54
				},
				{
					"input":49,
					"interpolation":"STEP",
					"output":55
				},
				{
					"input":49,
					"interpolation":"STEP",
					"output":53
				},
				{
					"input":49,
					"interpolation":"STEP",
					"output":56
				},
				{
					"input":49,
					"interpolation":"STEP",
					"output":57
				},
				{
					"input":49,
					"interpolation":"STEP",
					"output":53
				},
				{
					"input":49,
					"interpolation":"STEP",
					"output":58
				},
				{
					"input":49,
					"interpolation":"STEP",
					"output":59
				},
				{
					"input":49,
					"interpolation":"STEP",
					"output":53
				},
				{
					"input":49,
					"interpolation":"STEP",
					"output":60
				},
				{
					"input":49,
					"interpolation":"STEP",
					"output":61
				},
				{
					"input":49,
					"interpolation":"STEP",
					"output":53
				},
				{
					"input":51,
					"interpolation":"LINEAR",
					"output":62
				},
				{
					"input":49,
					"interpolation":"STEP",
					"output":63
				},
				{
					"input":49,
					"interpolation":"STEP",
					"output":53
				}
			]
		},
		{
			"channels":[
				{
					"sampler":0,
					"target":{
						"node":19,
						"path":"translation"
					}
				},
				{
					"sampler":1,
					"target":{
						"node":19,
						"path":"rotation"
					}
				},
				{
					"sampler":2,
					"target":{
						"node":19,
						"path":"scale"
					}
				},
				{
					"sampler":3,
					"target":{
						"node":2,
						"path":"translation"
					}
				},
				{
					"sampler":4,
					"target":{
						"node":2,
						"path":"rotation"
					}
				},
				{
					"sampler":5,
					"target":{
						"node":2,
						"path":"scale"
					}
				},
				{
					"sampler":6,
					"target":{
						"node":1,
						"path":"translation"
					}
				},
				{
					"sampler":7,
					"target":{
						"node":1,
						"path":"rotation"
					}
				},
				{
					"sampler":8,
					"target":{
						"node":1,
						"path":"scale"
					}
				},
				{
					"sampler":9,
					"target":{
						"node":5,
						"path":"translation"
					}
				},
				{
					"sampler":10,
					"target":{
						"node":5,
						"path":"rotation"
					}
				},
				{
					"sampler":11,
					"target":{
						"node":5,
						"path":"scale"
					}
				},
				{
					"sampler":12,
					"target":{
						"node":4,
						"path":"translation"
					}
				},
				{
					"sampler":13,
					"target":{
						"node":4,
						"path":"rotation"
					}
				},
				{
					"sampler":14,
					"target":{
						"node":4,
						"path":"scale"
					}
				},
				{
					"sampler":15,
					"target":{
						"node":10,
						"path":"translation"
					}
				},
				{
					"sampler":16,
					"target":{
						"node":10,
						"path":"rotation"
					}
				},
				{
					"sampler":17,
					"target":{
						"node":10,
						"path":"scale"
					}
				}
			],
			"name":"fly",
			"samplers":[
				{
					"input":51,
					"interpolation":"LINEAR",
					"output":64
				},
				{
					"input":49,
					"interpolation":"STEP",
					"output":65
				},
				{
					"input":49,
					"interpolation":"STEP",
					"output":53
				},
				{
					"input":49,
					"interpolation":"STEP",
					"output":54
				},
				{
					"input":49,
					"interpolation":"STEP",
					"output":55
				},
				{
					"input":49,
					"interpolation":"STEP",
					"output":53
				},
				{
					"input":49,
					"interpolation":"STEP",
					"output":56
				},
				{
					"input":51,
					"interpolation":"LINEAR",
					"output":66
				},
				{
					"input":49,
					"interpolation":"STEP",
					"output":53
				},
				{
					"input":49,
					"interpolation":"STEP",
					"output":58
				},
				{
					"input":49,
					"interpolation":"STEP",
					"output":59
				},
				{
					"input":49,
					"interpolation":"STEP",
					"output":53
				},
				{
					"input":49,
					"interpolation":"STEP",
					"output":60
				},
				{
					"input":51,
					"interpolation":"LINEAR",
					"output":67
				},
				{
					"input":49,
					"interpolation":"STEP",
					"output":53
				},
				{
					"input":51,
					"interpolation":"LINEAR",
					"output":68
				},
				{
					"input":49,
					"interpolation":"STEP",
					"output":63
				},
				{
					"input":49,
					"interpolation":"STEP",
					"output":53
				}
			]
		},
		{
			"channels":[
				{
					"sampler":0,
					"target":{
						"node":19,
						"path":"translation"
					}
				},
				{
					"sampler":1,
					"target":{
						"node":19,
						"path":"rotation"
					}
				},
				{
					"sampler":2,
					"target":{
						"node":19,
						"path":"scale"
					}
				},
				{
					"sampler":3,
					"target":{
						"node":2,
						"path":"translation"
					}
				},
				{
					"sampler":4,
					"target":{
						"node":2,
						"path":"rotation"
					}
				},
				{
					"sampler":5,
					"target":{
						"node":2,
						"path":"scale"
					}
				},
				{
					"sampler":6,
					"target":{
						"node":1,
						"path":"translation"
					}
				},
				{
					"sampler":7,
					"target":{
						"node":1,
						"path":"rotation"
					}
				},
				{
					"sampler":8,
					"target":{
						"node":1,
						"path":"scale"
					}
				},
				{
					"sampler":9,
					"target":{
						"node":5,
						"path":"translation"
					}
				},
				{
					"sampler":10,
					"target":{
						"node":5,
						"path":"rotation"
					}
				},
				{
					"sampler":11,
					"target":{
						"node":5,
						"path":"scale"
					}
				},
				{
					"sampler":12,
					"target":{
						"node":4,
						"path":"translation"
					}
				},
				{
					"sampler":13,
					"target":{
						"node":4,
						"path":"rotation"
					}
				},
				{
					"sampler":14,
					"target":{
						"node":4,
						"path":"scale"
					}
				},
				{
					"sampler":15,
					"target":{
						"node":10,
						"path":"translation"
					}
				},
				{
					"sampler":16,
					"target":{
						"node":10,
						"path":"rotation"
					}
				},
				{
					"sampler":17,
					"target":{
						"node":10,
						"path":"scale"
					}
				}
			],
			"name":"Move",
			"samplers":[
				{
					"input":69,
					"interpolation":"LINEAR",
					"output":70
				},
				{
					"input":69,
					"interpolation":"LINEAR",
					"output":71
				},
				{
					"input":72,
					"interpolation":"STEP",
					"output":53
				},
				{
					"input":72,
					"interpolation":"STEP",
					"output":54
				},
				{
					"input":72,
					"interpolation":"STEP",
					"output":55
				},
				{
					"input":72,
					"interpolation":"STEP",
					"output":53
				},
				{
					"input":72,
					"interpolation":"STEP",
					"output":56
				},
				{
					"input":72,
					"interpolation":"STEP",
					"output":57
				},
				{
					"input":72,
					"interpolation":"STEP",
					"output":53
				},
				{
					"input":72,
					"interpolation":"STEP",
					"output":58
				},
				{
					"input":72,
					"interpolation":"STEP",
					"output":59
				},
				{
					"input":72,
					"interpolation":"STEP",
					"output":53
				},
				{
					"input":72,
					"interpolation":"STEP",
					"output":60
				},
				{
					"input":72,
					"interpolation":"STEP",
					"output":61
				},
				{
					"input":72,
					"interpolation":"STEP",
					"output":53
				},
				{
					"input":72,
					"interpolation":"STEP",
					"output":73
				},
				{
					"input":69,
					"interpolation":"LINEAR",
					"output":74
				},
				{
					"input":72,
					"interpolation":"STEP",
					"output":53
				}
			]
		},
		{
			"channels":[
				{
					"sampler":0,
					"target":{
						"node":6,
						"path":"translation"
					}
				}
			],
			"name":"Cylinder.011Action",
			"samplers":[
				{
					"input":75,
					"interpolation":"LINEAR",
					"output":76
				}
			]
		},
		{
			"channels":[
				{
					"sampler":0,
					"target":{
						"node":7,
						"path":"translation"
					}
				}
			],
			"name":"Cylinder.012Action",
			"samplers":[
				{
					"input":75,
					"interpolation":"LINEAR",
					"output":76
				}
			]
		},
		{
			"channels":[
				{
					"sampler":0,
					"target":{
						"node":8,
						"path":"translation"
					}
				}
			],
			"name":"Cylinder.013Action",
			"samplers":[
				{
					"input":75,
					"interpolation":"LINEAR",
					"output":76
				}
			]
		},
		{
			"channels":[
				{
					"sampler":0,
					"target":{
						"node":9,
						"path":"translation"
					}
				}
			],
			"name":"Cylinder.014Action",
			"samplers":[
				{
					"input":75,
					"interpolation":"LINEAR",
					"output":76
				}
			]
		},
		{
			"channels":[
				{
					"sampler":0,
					"target":{
						"node":14,
						"path":"translation"
					}
				}
			],
			"name":"Cylinder.007Action",
			"samplers":[
				{
					"input":75,
					"interpolation":"LINEAR",
					"output":77
				}
			]
		},
		{
			"channels":[
				{
					"sampler":0,
					"target":{
						"node":15,
						"path":"translation"
					}
				}
			],
			"name":"Cylinder.008Action",
			"samplers":[
				{
					"input":75,
					"interpolation":"LINEAR",
					"output":77
				}
			]
		},
		{
			"channels":[
				{
					"sampler":0,
					"target":{
						"node":16,
						"path":"translation"
					}
				}
			],
			"name":"Cylinder.009Action",
			"samplers":[
				{
					"input":75,
					"interpolation":"LINEAR",
					"output":77
				}
			]
		},
		{
			"channels":[
				{
					"sampler":0,
					"target":{
						"node":17,
						"path":"translation"
					}
				}
			],
			"name":"Cylinder.010Action",
			"samplers":[
				{
					"input":75,
					"interpolation":"LINEAR",
					"output":77
				}
			]
		}
	],
	"materials":[
		{
			"doubleSided":true,
			"name":"Material",
			"pbrMetallicRoughness":{
				"baseColorTexture":{
					"index":0
				},
				"metallicFactor":0,
				"roughnessFactor":0.5
			}
		}
	],
	"meshes":[
		{
			"name":"Cube.018",
			"primitives":[
				{
					"attributes":{
						"POSITION":0,
						"NORMAL":1,
						"TEXCOORD_0":2
					},
					"indices":3,
					"material":0
				}
			]
		},
		{
			"name":"Cube.050",
			"primitives":[
				{
					"attributes":{
						"POSITION":4,
						"NORMAL":5,
						"TEXCOORD_0":6
					},
					"indices":7,
					"material":0
				}
			]
		},
		{
			"name":"Cylinder.012",
			"primitives":[
				{
					"attributes":{
						"POSITION":8,
						"NORMAL":9,
						"TEXCOORD_0":10
					},
					"indices":11,
					"material":0
				}
			]
		},
		{
			"name":"Cylinder.013",
			"primitives":[
				{
					"attributes":{
						"POSITION":12,
						"NORMAL":13,
						"TEXCOORD_0":14
					},
					"indices":11,
					"material":0
				}
			]
		},
		{
			"name":"Cylinder.014",
			"primitives":[
				{
					"attributes":{
						"POSITION":15,
						"NORMAL":16,
						"TEXCOORD_0":17
					},
					"indices":11,
					"material":0
				}
			]
		},
		{
			"name":"Cylinder.015",
			"primitives":[
				{
					"attributes":{
						"POSITION":18,
						"NORMAL":19,
						"TEXCOORD_0":20
					},
					"indices":11,
					"material":0
				}
			]
		},
		{
			"name":"Cube.023",
			"primitives":[
				{
					"attributes":{
						"POSITION":21,
						"NORMAL":22,
						"TEXCOORD_0":23
					},
					"indices":24,
					"material":0
				}
			]
		},
		{
			"name":"Cube.033",
			"primitives":[
				{
					"attributes":{
						"POSITION":25,
						"NORMAL":26,
						"TEXCOORD_0":27
					},
					"indices":28,
					"material":0
				}
			]
		},
		{
			"name":"Cylinder.004",
			"primitives":[
				{
					"attributes":{
						"POSITION":29,
						"NORMAL":30,
						"TEXCOORD_0":31
					},
					"indices":32,
					"material":0
				}
			]
		},
		{
			"name":"Cylinder.008",
			"primitives":[
				{
					"attributes":{
						"POSITION":33,
						"NORMAL":34,
						"TEXCOORD_0":35
					},
					"indices":11,
					"material":0
				}
			]
		},
		{
			"name":"Cylinder.009",
			"primitives":[
				{
					"attributes":{
						"POSITION":36,
						"NORMAL":37,
						"TEXCOORD_0":38
					},
					"indices":11,
					"material":0
				}
			]
		},
		{
			"name":"Cylinder.010",
			"primitives":[
				{
					"attributes":{
						"POSITION":39,
						"NORMAL":40,
						"TEXCOORD_0":41
					},
					"indices":11,
					"material":0
				}
			]
		},
		{
			"name":"Cylinder.011",
			"primitives":[
				{
					"attributes":{
						"POSITION":42,
						"NORMAL":43,
						"TEXCOORD_0":44
					},
					"indices":11,
					"material":0
				}
			]
		},
		{
			"name":"Cube.049",
			"primitives":[
				{
					"attributes":{
						"POSITION":45,
						"NORMAL":46,
						"TEXCOORD_0":47
					},
					"indices":48,
					"material":0
				}
			]
		}
	],
	"textures":[
		{
			"sampler":0,
			"source":0
		}
	],
	"images":[
		{
			"mimeType":"image/png",
			"name":"texture",
			"uri":"texture.png"
		}
	],
	"skins":[
		{
			"inverseBindMatrices":78,
			"joints":[
				19,
				2,
				1,
				5,
				4,
				10
			],
			"name":"Armature.002"
		}
	],
	"accessors":[
		{
			"bufferView":0,
			"componentType":5126,
			"count":36,
			"max":[
				-1.359748363494873,
				0.11489001661539078,
				0.8634778261184692
			],
			"min":[
				-3.0867040157318115,
				-0.11489001661539078,
				-0.8634778261184692
			],
			"type":"VEC3"
		},
		{
			"bufferView":1,
			"componentType":5126,
			"count":36,
			"type":"VEC3"
		},
		{
			"bufferView":2,
			"componentType":5126,
			"count":36,
			"type":"VEC2"
		},
		{
			"bufferView":3,
			"componentType":5123,
			"count":60,
			"type":"SCALAR"
		},
		{
			"bufferView":4,
			"componentType":5126,
			"count":36,
			"max":[
				3.0867040157318115,
				0.11489001661539078,
				0.8634778261184692
			],
			"min":[
				1.359748363494873,
				-0.11489001661539078,
				-0.8634778261184692
			],
			"type":"VEC3"
		},
		{
			"bufferView":5,
			"componentType":5126,
			"count":36,
			"type":"VEC3"
		},
		{
			"bufferView":6,
			"componentType":5126,
			"count":36,
			"type":"VEC2"
		},
		{
			"bufferView":7,
			"componentType":5123,
			"count":60,
			"type":"SCALAR"
		},
		{
			"bufferView":8,
			"componentType":5126,
			"count":32,
			"max":[
				0.7623165845870972,
				0.26497161388397217,
				1.0045380592346191
			],
			"min":[
				0.5694968700408936,
				0.07215195149183273,
				1.0045380592346191
			],
			"type":"VEC3"
		},
		{
			"bufferView":9,
			"componentType":5126,
			"count":32,
			"type":"VEC3"
		},
		{
			"bufferView":10,
			"componentType":5126,
			"count":32,
			"type":"VEC2"
		},
		{
			"bufferView":11,
			"componentType":5123,
			"count":84,
			"type":"SCALAR"
		},
		{
			"bufferView":12,
			"componentType":5126,
			"count":32,
			"max":[
				1.3043590784072876,
				0.26497161388397217,
				1.0045380592346191
			],
			"min":[
				1.1115394830703735,
				0.07215195149183273,
				1.0045380592346191
			],
			"type":"VEC3"
		},
		{
			"bufferView":13,
			"componentType":5126,
			"count":32,
			"type":"VEC3"
		},
		{
			"bufferView":14,
			"componentType":5126,
			"count":32,
			"type":"VEC2"
		},
		{
			"bufferView":15,
			"componentType":5126,
			"count":32,
			"max":[
				0.7623165845870972,
				-0.2821844220161438,
				1.0045380592346191
			],
			"min":[
				0.5694968700408936,
				-0.47500407695770264,
				1.0045380592346191
			],
			"type":"VEC3"
		},
		{
			"bufferView":16,
			"componentType":5126,
			"count":32,
			"type":"VEC3"
		},
		{
			"bufferView":17,
			"componentType":5126,
			"count":32,
			"type":"VEC2"
		},
		{
			"bufferView":18,
			"componentType":5126,
			"count":32,
			"max":[
				1.3043590784072876,
				-0.2821844220161438,
				1.0045380592346191
			],
			"min":[
				1.1115394830703735,
				-0.47500407695770264,
				1.0045380592346191
			],
			"type":"VEC3"
		},
		{
			"bufferView":19,
			"componentType":5126,
			"count":32,
			"type":"VEC3"
		},
		{
			"bufferView":20,
			"componentType":5126,
			"count":32,
			"type":"VEC2"
		},
		{
			"bufferView":21,
			"componentType":5126,
			"count":24,
			"max":[
				0.2968354821205139,
				0.6768004894256592,
				1.061587929725647
			],
			"min":[
				-1.373017430305481,
				-0.6768004894256592,
				0.8138989806175232
			],
			"type":"VEC3"
		},
		{
			"bufferView":22,
			"componentType":5126,
			"count":24,
			"type":"VEC3"
		},
		{
			"bufferView":23,
			"componentType":5126,
			"count":24,
			"type":"VEC2"
		},
		{
			"bufferView":24,
			"componentType":5123,
			"count":36,
			"type":"SCALAR"
		},
		{
			"bufferView":25,
			"componentType":5126,
			"count":144,
			"max":[
				1.3580846786499023,
				1.789636492729187,
				0.650483250617981
			],
			"min":[
				-1.3580846786499023,
				0.8024390935897827,
				-0.650483250617981
			],
			"type":"VEC3"
		},
		{
			"bufferView":26,
			"componentType":5126,
			"count":144,
			"type":"VEC3"
		},
		{
			"bufferView":27,
			"componentType":5126,
			"count":144,
			"type":"VEC2"
		},
		{
			"bufferView":28,
			"componentType":5123,
			"count":216,
			"type":"SCALAR"
		},
		{
			"bufferView":29,
			"componentType":5126,
			"count":96,
			"max":[
				1.3481115102767944,
				-0.8126236796379089,
				0.6191442012786865
			],
			"min":[
				-1.3481115102767944,
				-0.9306479692459106,
				-0.6191442012786865
			],
			"type":"VEC3"
		},
		{
			"bufferView":30,
			"componentType":5126,
			"count":96,
			"type":"VEC3"
		},
		{
			"bufferView":31,
			"componentType":5126,
			"count":96,
			"type":"VEC2"
		},
		{
			"bufferView":32,
			"componentType":5123,
			"count":168,
			"type":"SCALAR"
		},
		{
			"bufferView":33,
			"componentType":5126,
			"count":32,
			"max":[
				0.930326521396637,
				0.5877756476402283,
				1.001217246055603
			],
			"min":[
				0.40148693323135376,
				0.05893605947494507,
				1.001217246055603
			],
			"type":"VEC3"
		},
		{
			"bufferView":34,
			"componentType":5126,
			"count":32,
			"type":"VEC3"
		},
		{
			"bufferView":35,
			"componentType":5126,
			"count":32,
			"type":"VEC2"
		},
		{
			"bufferView":36,
			"componentType":5126,
			"count":32,
			"max":[
				1.4723690748214722,
				0.5877756476402283,
				1.001217246055603
			],
			"min":[
				0.943529486656189,
				0.05893605947494507,
				1.001217246055603
			],
			"type":"VEC3"
		},
		{
			"bufferView":37,
			"componentType":5126,
			"count":32,
			"type":"VEC3"
		},
		{
			"bufferView":38,
			"componentType":5126,
			"count":32,
			"type":"VEC2"
		},
		{
			"bufferView":39,
			"componentType":5126,
			"count":32,
			"max":[
				0.930326521396637,
				0.040619611740112305,
				1.001217246055603
			],
			"min":[
				0.40148693323135376,
				-0.4882199764251709,
				1.001217246055603
			],
			"type":"VEC3"
		},
		{
			"bufferView":40,
			"componentType":5126,
			"count":32,
			"type":"VEC3"
		},
		{
			"bufferView":41,
			"componentType":5126,
			"count":32,
			"type":"VEC2"
		},
		{
			"bufferView":42,
			"componentType":5126,
			"count":32,
			"max":[
				1.4723690748214722,
				0.040619611740112305,
				1.001217246055603
			],
			"min":[
				0.943529486656189,
				-0.4882199764251709,
				1.001217246055603
			],
			"type":"VEC3"
		},
		{
			"bufferView":43,
			"componentType":5126,
			"count":32,
			"type":"VEC3"
		},
		{
			"bufferView":44,
			"componentType":5126,
			"count":32,
			"type":"VEC2"
		},
		{
			"bufferView":45,
			"componentType":5126,
			"count":24,
			"max":[
				1.544489860534668,
				0.8533767461776733,
				1
			],
			"min":[
				-1.544489860534668,
				-0.8533767461776733,
				-1
			],
			"type":"VEC3"
		},
		{
			"bufferView":46,
			"componentType":5126,
			"count":24,
			"type":"VEC3"
		},
		{
			"bufferView":47,
			"componentType":5126,
			"count":24,
			"type":"VEC2"
		},
		{
			"bufferView":48,
			"componentType":5123,
			"count":36,
			"type":"SCALAR"
		},
		{
			"bufferView":49,
			"componentType":5126,
			"count":2,
			"max":[
				0.75
			],
			"min":[
				0.041666666666666664
			],
			"type":"SCALAR"
		},
		{
			"bufferView":50,
			"componentType":5126,
			"count":2,
			"type":"VEC3"
		},
		{
			"bufferView":51,
			"componentType":5126,
			"count":18,
			"max":[
				0.75
			],
			"min":[
				0.041666666666666664
			],
			"type":"SCALAR"
		},
		{
			"bufferView":52,
			"componentType":5126,
			"count":18,
			"type":"VEC4"
		},
		{
			"bufferView":53,
			"componentType":5126,
			"count":2,
			"type":"VEC3"
		},
		{
			"bufferView":54,
			"componentType":5126,
			"count":2,
			"type":"VEC3"
		},
		{
			"bufferView":55,
			"componentType":5126,
			"count":2,
			"type":"VEC4"
		},
		{
			"bufferView":56,
			"componentType":5126,
			"count":2,
			"type":"VEC3"
		},
		{
			"bufferView":57,
			"componentType":5126,
			"count":2,
			"type":"VEC4"
		},
		{
			"bufferView":58,
			"componentType":5126,
			"count":2,
			"type":"VEC3"
		},
		{
			"bufferView":59,
			"componentType":5126,
			"count":2,
			"type":"VEC4"
		},
		{
			"bufferView":60,
			"componentType":5126,
			"count":2,
			"type":"VEC3"
		},
		{
			"bufferView":61,
			"componentType":5126,
			"count":2,
			"type":"VEC4"
		},
		{
			"bufferView":62,
			"componentType":5126,
			"count":18,
			"type":"VEC3"
		},
		{
			"bufferView":63,
			"componentType":5126,
			"count":2,
			"type":"VEC4"
		},
		{
			"bufferView":64,
			"componentType":5126,
			"count":18,
			"type":"VEC3"
		},
		{
			"bufferView":65,
			"componentType":5126,
			"count":2,
			"type":"VEC4"
		},
		{
			"bufferView":66,
			"componentType":5126,
			"count":18,
			"type":"VEC4"
		},
		{
			"bufferView":67,
			"componentType":5126,
			"count":18,
			"type":"VEC4"
		},
		{
			"bufferView":68,
			"componentType":5126,
			"count":18,
			"type":"VEC3"
		},
		{
			"bufferView":69,
			"componentType":5126,
			"count":10,
			"max":[
				0.4166666666666667
			],
			"min":[
				0.041666666666666664
			],
			"type":"SCALAR"
		},
		{
			"bufferView":70,
			"componentType":5126,
			"count":10,
			"type":"VEC3"
		},
		{
			"bufferView":71,
			"componentType":5126,
			"count":10,
			"type":"VEC4"
		},
		{
			"bufferView":72,
			"componentType":5126,
			"count":2,
			"max":[
				0.4166666666666667
			],
			"min":[
				0.041666666666666664
			],
			"type":"SCALAR"
		},
		{
			"bufferView":73,
			"componentType":5126,
			"count":2,
			"type":"VEC3"
		},
		{
			"bufferView":74,
			"componentType":5126,
			"count":10,
			"type":"VEC4"
		},
		{
			"bufferView":75,
			"componentType":5126,
			"count":1,
			"max":[
				0.041666666666666664
			],
			"min":[
				0.041666666666666664
			],
			"type":"SCALAR"
		},
		{
			"bufferView":76,
			"componentType":5126,
			"count":1,
			"type":"VEC3"
		},
		{
			"bufferView":77,
			"componentType":5126,
			"count":1,
			"type":"VEC3"
		},
		{
			"bufferView":78,
			"componentType":5126,
			"count":6,
			"type":"MAT4"
		}
	],
	"bufferViews":[
		{
			"buffer":0,
			"byteLength":432,
			"byteOffset":0,
			"target":34962
		},
		{
			"buffer":0,
			"byteLength":432,
			"byteOffset":432,
			"target":34962
		},
		{
			"buffer":0,
			"byteLength":288,
			"byteOffset":864,
			"target":34962
		},
		{
			"buffer":0,
			"byteLength":120,
			"byteOffset":1152,
			"target":34963
		},
		{
			"buffer":0,
			"byteLength":432,
			"byteOffset":1272,
			"target":34962
		},
		{
			"buffer":0,
			"byteLength":432,
			"byteOffset":1704,
			"target":34962
		},
		{
			"buffer":0,
			"byteLength":288,
			"byteOffset":2136,
			"target":34962
		},
		{
			"buffer":0,
			"byteLength":120,
			"byteOffset":2424,
			"target":34963
		},
		{
			"buffer":0,
			"byteLength":384,
			"byteOffset":2544,
			"target":34962
		},
		{
			"buffer":0,
			"byteLength":384,
			"byteOffset":2928,
			"target":34962
		},
		{
			"buffer":0,
			"byteLength":256,
			"byteOffset":3312,
			"target":34962
		},
		{
			"buffer":0,
			"byteLength":168,
			"byteOffset":3568,
			"target":34963
		},
		{
			"buffer":0,
			"byteLength":384,
			"byteOffset":3736,
			"target":34962
		},
		{
			"buffer":0,
			"byteLength":384,
			"byteOffset":4120,
			"target":34962
		},
		{
			"buffer":0,
			"byteLength":256,
			"byteOffset":4504,
			"target":34962
		},
		{
			"buffer":0,
			"byteLength":384,
			"byteOffset":4760,
			"target":34962
		},
		{
			"buffer":0,
			"byteLength":384,
			"byteOffset":5144,
			"target":34962
		},
		{
			"buffer":0,
			"byteLength":256,
			"byteOffset":5528,
			"target":34962
		},
		{
			"buffer":0,
			"byteLength":384,
			"byteOffset":5784,
			"target":34962
		},
		{
			"buffer":0,
			"byteLength":384,
			"byteOffset":6168,
			"target":34962
		},
		{
			"buffer":0,
			"byteLength":256,
			"byteOffset":6552,
			"target":34962
		},
		{
			"buffer":0,
			"byteLength":288,
			"byteOffset":6808,
			"target":34962
		},
		{
			"buffer":0,
			"byteLength":288,
			"byteOffset":7096,
			"target":34962
		},
		{
			"buffer":0,
			"byteLength":192,
			"byteOffset":7384,
			"target":34962
		},
		{
			"buffer":0,
			"byteLength":72,
			"byteOffset":7576,
			"target":34963
		},
		{
			"buffer":0,
			"byteLength":1728,
			"byteOffset":7648,
			"target":34962
		},
		{
			"buffer":0,
			"byteLength":1728,
			"byteOffset":9376,
			"target":34962
		},
		{
			"buffer":0,
			"byteLength":1152,
			"byteOffset":11104,
			"target":34962
		},
		{
			"buffer":0,
			"byteLength":432,
			"byteOffset":12256,
			"target":34963
		},
		{
			"buffer":0,
			"byteLength":1152,
			"byteOffset":12688,
			"target":34962
		},
		{
			"buffer":0,
			"byteLength":1152,
			"byteOffset":13840,
			"target":34962
		},
		{
			"buffer":0,
			"byteLength":768,
			"byteOffset":14992,
			"target":34962
		},
		{
			"buffer":0,
			"byteLength":336,
			"byteOffset":15760,
			"target":34963
		},
		{
			"buffer":0,
			"byteLength":384,
			"byteOffset":16096,
			"target":34962
		},
		{
			"buffer":0,
			"byteLength":384,
			"byteOffset":16480,
			"target":34962
		},
		{
			"buffer":0,
			"byteLength":256,
			"byteOffset":16864,
			"target":34962
		},
		{
			"buffer":0,
			"byteLength":384,
			"byteOffset":17120,
			"target":34962
		},
		{
			"buffer":0,
			"byteLength":384,
			"byteOffset":17504,
			"target":34962
		},
		{
			"buffer":0,
			"byteLength":256,
			"byteOffset":17888,
			"target":34962
		},
		{
			"buffer":0,
			"byteLength":384,
			"byteOffset":18144,
			"target":34962
		},
		{
			"buffer":0,
			"byteLength":384,
			"byteOffset":18528,
			"target":34962
		},
		{
			"buffer":0,
			"byteLength":256,
			"byteOffset":18912,
			"target":34962
		},
		{
			"buffer":0,
			"byteLength":384,
			"byteOffset":19168,
			"target":34962
		},
		{
			"buffer":0,
			"byteLength":384,
			"byteOffset":19552,
			"target":34962
		},
		{
			"buffer":0,
			"byteLength":256,
			"byteOffset":19936,
			"target":34962
		},
		{
			"buffer":0,
			"byteLength":288,
			"byteOffset":20192,
			"target":34962
		},
		{
			"buffer":0,
			"byteLength":288,
			"byteOffset":20480,
			"target":34962
		},
		{
			"buffer":0,
			"byteLength":192,
			"byteOffset":20768,
			"target":34962
		},
		{
			"buffer":0,
			"byteLength":72,
			"byteOffset":20960,
			"target":34963
		},
		{
			"buffer":0,
			"byteLength":8,
			"byteOffset":21032
		},
		{
			"buffer":0,
			"byteLength":24,
			"byteOffset":21040
		},
		{
			"buffer":0,
			"byteLength":72,
			"byteOffset":21064
		},
		{
			"buffer":0,
			"byteLength":288,
			"byteOffset":21136
		},
		{
			"buffer":0,
			"byteLength":24,
			"byteOffset":21424
		},
		{
			"buffer":0,
			"byteLength":24,
			"byteOffset":21448
		},
		{
			"buffer":0,
			"byteLength":32,
			"byteOffset":21472
		},
		{
			"buffer":0,
			"byteLength":24,
			"byteOffset":21504
		},
		{
			"buffer":0,
			"byteLength":32,
			"byteOffset":21528
		},
		{
			"buffer":0,
			"byteLength":24,
			"byteOffset":21560
		},
		{
			"buffer":0,
			"byteLength":32,
			"byteOffset":21584
		},
		{
			"buffer":0,
			"byteLength":24,
			"byteOffset":21616
		},
		{
			"buffer":0,
			"byteLength":32,
			"byteOffset":21640
		},
		{
			"buffer":0,
			"byteLength":216,
			"byteOffset":21672
		},
		{
			"buffer":0,
			"byteLength":32,
			"byteOffset":21888
		},
		{
			"buffer":0,
			"byteLength":216,
			"byteOffset":21920
		},
		{
			"buffer":0,
			"byteLength":32,
			"byteOffset":22136
		},
		{
			"buffer":0,
			"byteLength":288,
			"byteOffset":22168
		},
		{
			"buffer":0,
			"byteLength":288,
			"byteOffset":22456
		},
		{
			"buffer":0,
			"byteLength":216,
			"byteOffset":22744
		},
		{
			"buffer":0,
			"byteLength":40,
			"byteOffset":22960
		},
		{
			"buffer":0,
			"byteLength":120,
			"byteOffset":23000
		},
		{
			"buffer":0,
			"byteLength":160,
			"byteOffset":23120
		},
		{
			"buffer":0,
			"byteLength":8,
			"byteOffset":23280
		},
		{
			"buffer":0,
			"byteLength":24,
			"byteOffset":23288
		},
		{
			"buffer":0,
			"byteLength":160,
			"byteOffset":23312
		},
		{
			"buffer":0,
			"byteLength":4,
			"byteOffset":23472
		},
		{
			"buffer":0,
			"byteLength":12,
			"byteOffset":23476
		},
		{
			"buffer":0,
			"byteLength":12,
			"byteOffset":23488
		},
		{
			"buffer":0,
			"byteLength":384,
			"byteOffset":23500
		}
	],
	"samplers":[
		{
			"magFilter":9729,
			"minFilter":9987
		}
	],
	"buffers":[
		{
			"byteLength":23884,
			"uri":"microwave.bin"
		}
	]
}
