{
	"asset":{
		"generator":"Khronos glTF Blender I/O v4.5.47",
		"version":"2.0"
	},
	"scene":0,
	"scenes":[
		{
			"name":"Scene",
			"nodes":[
				3
			]
		}
	],
	"nodes":[
		{
			"mesh":0,
			"name":"Cube.013"
		},
		{
			"mesh":1,
			"name":"Cube.016"
		},
		{
			"mesh":2,
			"name":"Cube.017"
		},
		{
			"children":[
				0,
				1,
				2
			],
			"mesh":3,
			"name":"Cube.008"
		}
	],
	"materials":[
		{
			"doubleSided":true,
			"name":"Material",
			"pbrMetallicRoughness":{
				"baseColorTexture":{
					"index":0
				},
				"metallicFactor":0,
				"roughnessFactor":0.5
			}
		}
	],
	"meshes":[
		{
			"name":"Cube.021",
			"primitives":[
				{
					"attributes":{
						"POSITION":0,
						"NORMAL":1,
						"TEXCOORD_0":2
					},
					"indices":3,
					"material":0
				}
			]
		},
		{
			"name":"Cube.019",
			"primitives":[
				{
					"attributes":{
						"POSITION":4,
						"NORMAL":5,
						"TEXCOORD_0":6
					},
					"indices":7,
					"material":0
				}
			]
		},
		{
			"name":"Cube.020",
			"primitives":[
				{
					"attributes":{
						"POSITION":8,
						"NORMAL":9,
						"TEXCOORD_0":10
					},
					"indices":11,
					"material":0
				}
			]
		},
		{
			"name":"Cube.017",
			"primitives":[
				{
					"attributes":{
						"POSITION":12,
						"NORMAL":13,
						"TEXCOORD_0":14
					},
					"indices":15,
					"material":0
				}
			]
		}
	],
	"textures":[
		{
			"sampler":0,
			"source":0
		}
	],
	"images":[
		{
			"mimeType":"image/png",
			"name":"texture",
			"uri":"texture.png"
		}
	],
	"accessors":[
		{
			"bufferView":0,
			"componentType":5126,
			"count":96,
			"max":[
				0.757316529750824,
				0.545167088508606,
				2.2488996982574463
			],
			"min":[
				-0.757316529750824,
				0.0026833415031433105,
				-2.2488996982574463
			],
			"type":"VEC3"
		},
		{
			"bufferView":1,
			"componentType":5126,
			"count":96,
			"type":"VEC3"
		},
		{
			"bufferView":2,
			"componentType":5126,
			"count":96,
			"type":"VEC2"
		},
		{
			"bufferView":3,
			"componentType":5123,
			"count":144,
			"type":"SCALAR"
		},
		{
			"bufferView":4,
			"componentType":5126,
			"count":114,
			"max":[
				0.9173266291618347,
				1.2515113353729248,
				2.306621551513672
			],
			"min":[
				-0.5775030255317688,
				1.0182347297668457,
				-2.2376604080200195
			],
			"type":"VEC3"
		},
		{
			"bufferView":5,
			"componentType":5126,
			"count":114,
			"type":"VEC3"
		},
		{
			"bufferView":6,
			"componentType":5126,
			"count":114,
			"type":"VEC2"
		},
		{
			"bufferView":7,
			"componentType":5123,
			"count":180,
			"type":"SCALAR"
		},
		{
			"bufferView":8,
			"componentType":5126,
			"count":132,
			"max":[
				-0.40967071056365967,
				2.758986711502075,
				2.306621551513672
			],
			"min":[
				-0.9154641628265381,
				1.2557973861694336,
				-2.2376604080200195
			],
			"type":"VEC3"
		},
		{
			"bufferView":9,
			"componentType":5126,
			"count":132,
			"type":"VEC3"
		},
		{
			"bufferView":10,
			"componentType":5126,
			"count":132,
			"type":"VEC2"
		},
		{
			"bufferView":11,
			"componentType":5123,
			"count":216,
			"type":"SCALAR"
		},
		{
			"bufferView":12,
			"componentType":5126,
			"count":272,
			"max":[
				1.0415074825286865,
				2.8950133323669434,
				2.407996892929077
			],
			"min":[
				-1.7746719121932983,
				0.26271188259124756,
				-2.407996892929077
			],
			"type":"VEC3"
		},
		{
			"bufferView":13,
			"componentType":5126,
			"count":272,
			"type":"VEC3"
		},
		{
			"bufferView":14,
			"componentType":5126,
			"count":272,
			"type":"VEC2"
		},
		{
			"bufferView":15,
			"componentType":5123,
			"count":432,
			"type":"SCALAR"
		}
	],
	"bufferViews":[
		{
			"buffer":0,
			"byteLength":1152,
			"byteOffset":0,
			"target":34962
		},
		{
			"buffer":0,
			"byteLength":1152,
			"byteOffset":1152,
			"target":34962
		},
		{
			"buffer":0,
			"byteLength":768,
			"byteOffset":2304,
			"target":34962
		},
		{
			"buffer":0,
			"byteLength":288,
			"byteOffset":3072,
			"target":34963
		},
		{
			"buffer":0,
			"byteLength":1368,
			"byteOffset":3360,
			"target":34962
		},
		{
			"buffer":0,
			"byteLength":1368,
			"byteOffset":4728,
			"target":34962
		},
		{
			"buffer":0,
			"byteLength":912,
			"byteOffset":6096,
			"target":34962
		},
		{
			"buffer":0,
			"byteLength":360,
			"byteOffset":7008,
			"target":34963
		},
		{
			"buffer":0,
			"byteLength":1584,
			"byteOffset":7368,
			"target":34962
		},
		{
			"buffer":0,
			"byteLength":1584,
			"byteOffset":8952,
			"target":34962
		},
		{
			"buffer":0,
			"byteLength":1056,
			"byteOffset":10536,
			"target":34962
		},
		{
			"buffer":0,
			"byteLength":432,
			"byteOffset":11592,
			"target":34963
		},
		{
			"buffer":0,
			"byteLength":3264,
			"byteOffset":12024,
			"target":34962
		},
		{
			"buffer":0,
			"byteLength":3264,
			"byteOffset":15288,
			"target":34962
		},
		{
			"buffer":0,
			"byteLength":2176,
			"byteOffset":18552,
			"target":34962
		},
		{
			"buffer":0,
			"byteLength":864,
			"byteOffset":20728,
			"target":34963
		}
	],
	"samplers":[
		{
			"magFilter":9729,
			"minFilter":9987
		}
	],
	"buffers":[
		{
			"byteLength":21592,
			"uri":"couch.bin"
		}
	]
}
