{
	"asset":{
		"generator":"Khronos glTF Blender I/O v4.5.47",
		"version":"2.0"
	},
	"scene":0,
	"scenes":[
		{
			"name":"Scene",
			"nodes":[
				21
			]
		}
	],
	"nodes":[
		{
			"mesh":0,
			"name":"Plane.001"
		},
		{
			"mesh":1,
			"name":"Plane.002"
		},
		{
			"mesh":2,
			"name":"Plane.003"
		},
		{
			"mesh":3,
			"name":"Plane.004"
		},
		{
			"mesh":4,
			"name":"Plane.005"
		},
		{
			"mesh":5,
			"name":"Plane.006"
		},
		{
			"mesh":6,
			"name":"Plane.007"
		},
		{
			"mesh":7,
			"name":"Plane.008"
		},
		{
			"mesh":8,
			"name":"Plane.009"
		},
		{
			"mesh":9,
			"name":"Plane.010"
		},
		{
			"mesh":10,
			"name":"Plane.011"
		},
		{
			"mesh":11,
			"name":"Plane.012"
		},
		{
			"mesh":12,
			"name":"Plane.013"
		},
		{
			"mesh":13,
			"name":"Plane.014"
		},
		{
			"mesh":14,
			"name":"Plane.015"
		},
		{
			"mesh":15,
			"name":"Plane.016"
		},
		{
			"mesh":16,
			"name":"Plane.017"
		},
		{
			"mesh":17,
			"name":"Plane.018"
		},
		{
			"mesh":18,
			"name":"Plane.019"
		},
		{
			"mesh":19,
			"name":"Plane.020"
		},
		{
			"children":[
				0,
				1,
				2,
				3,
				4,
				5,
				6,
				7,
				8,
				9,
				10,
				11,
				12,
				13,
				14,
				15,
				16,
				17,
				18,
				19
			],
			"mesh":20,
			"name":"Cylinder.003"
		},
		{
			"children":[
				20
			],
			"mesh":21,
			"name":"Cylinder.002"
		}
	],
	"materials":[
		{
			"doubleSided":true,
			"name":"Material",
			"pbrMetallicRoughness":{
				"baseColorTexture":{
					"index":0
				},
				"metallicFactor":0,
				"roughnessFactor":0.5
			}
		}
	],
	"meshes":[
		{
			"name":"Plane.001",
			"primitives":[
				{
					"attributes":{
						"POSITION":0,
						"NORMAL":1,
						"TEXCOORD_0":2
					},
					"indices":3,
					"material":0
				}
			]
		},
		{
			"name":"Plane.035",
			"primitives":[
				{
					"attributes":{
						"POSITION":4,
						"NORMAL":5,
						"TEXCOORD_0":6
					},
					"indices":7,
					"material":0
				}
			]
		},
		{
			"name":"Plane.036",
			"primitives":[
				{
					"attributes":{
						"POSITION":8,
						"NORMAL":9,
						"TEXCOORD_0":10
					},
					"indices":11,
					"material":0
				}
			]
		},
		{
			"name":"Plane.037",
			"primitives":[
				{
					"attributes":{
						"POSITION":12,
						"NORMAL":13,
						"TEXCOORD_0":14
					},
					"indices":11,
					"material":0
				}
			]
		},
		{
			"name":"Plane.038",
			"primitives":[
				{
					"attributes":{
						"POSITION":15,
						"NORMAL":16,
						"TEXCOORD_0":17
					},
					"indices":18,
					"material":0
				}
			]
		},
		{
			"name":"Plane.039",
			"primitives":[
				{
					"attributes":{
						"POSITION":19,
						"NORMAL":20,
						"TEXCOORD_0":21
					},
					"indices":3,
					"material":0
				}
			]
		},
		{
			"name":"Plane.040",
			"primitives":[
				{
					"attributes":{
						"POSITION":22,
						"NORMAL":23,
						"TEXCOORD_0":24
					},
					"indices":18,
					"material":0
				}
			]
		},
		{
			"name":"Plane.041",
			"primitives":[
				{
					"attributes":{
						"POSITION":25,
						"NORMAL":26,
						"TEXCOORD_0":27
					},
					"indices":11,
					"material":0
				}
			]
		},
		{
			"name":"Plane.042",
			"primitives":[
				{
					"attributes":{
						"POSITION":28,
						"NORMAL":29,
						"TEXCOORD_0":30
					},
					"indices":11,
					"material":0
				}
			]
		},
		{
			"name":"Plane.043",
			"primitives":[
				{
					"attributes":{
						"POSITION":31,
						"NORMAL":32,
						"TEXCOORD_0":33
					},
					"indices":34,
					"material":0
				}
			]
		},
		{
			"name":"Plane.044",
			"primitives":[
				{
					"attributes":{
						"POSITION":35,
						"NORMAL":36,
						"TEXCOORD_0":37
					},
					"indices":11,
					"material":0
				}
			]
		},
		{
			"name":"Plane.045",
			"primitives":[
				{
					"attributes":{
						"POSITION":38,
						"NORMAL":39,
						"TEXCOORD_0":40
					},
					"indices":41,
					"material":0
				}
			]
		},
		{
			"name":"Plane.046",
			"primitives":[
				{
					"attributes":{
						"POSITION":42,
						"NORMAL":43,
						"TEXCOORD_0":44
					},
					"indices":7,
					"material":0
				}
			]
		},
		{
			"name":"Plane.047",
			"primitives":[
				{
					"attributes":{
						"POSITION":45,
						"NORMAL":46,
						"TEXCOORD_0":47
					},
					"indices":18,
					"material":0
				}
			]
		},
		{
			"name":"Plane.048",
			"primitives":[
				{
					"attributes":{
						"POSITION":48,
						"NORMAL":49,
						"TEXCOORD_0":50
					},
					"indices":34,
					"material":0
				}
			]
		},
		{
			"name":"Plane.049",
			"primitives":[
				{
					"attributes":{
						"POSITION":51,
						"NORMAL":52,
						"TEXCOORD_0":53
					},
					"indices":41,
					"material":0
				}
			]
		},
		{
			"name":"Plane.050",
			"primitives":[
				{
					"attributes":{
						"POSITION":54,
						"NORMAL":55,
						"TEXCOORD_0":56
					},
					"indices":11,
					"material":0
				}
			]
		},
		{
			"name":"Plane.051",
			"primitives":[
				{
					"attributes":{
						"POSITION":57,
						"NORMAL":58,
						"TEXCOORD_0":59
					},
					"indices":7,
					"material":0
				}
			]
		},
		{
			"name":"Plane.052",
			"primitives":[
				{
					"attributes":{
						"POSITION":60,
						"NORMAL":61,
						"TEXCOORD_0":62
					},
					"indices":11,
					"material":0
				}
			]
		},
		{
			"name":"Plane.053",
			"primitives":[
				{
					"attributes":{
						"POSITION":63,
						"NORMAL":64,
						"TEXCOORD_0":65
					},
					"indices":18,
					"material":0
				}
			]
		},
		{
			"name":"Cylinder.005",
			"primitives":[
				{
					"attributes":{
						"POSITION":66,
						"NORMAL":67,
						"TEXCOORD_0":68
					},
					"indices":69,
					"material":0
				}
			]
		},
		{
			"name":"Cylinder.003",
			"primitives":[
				{
					"attributes":{
						"POSITION":70,
						"NORMAL":71,
						"TEXCOORD_0":72
					},
					"indices":73,
					"material":0
				}
			]
		}
	],
	"textures":[
		{
			"sampler":0,
			"source":0
		}
	],
	"images":[
		{
			"mimeType":"image/png",
			"name":"texture",
			"uri":"texture.png"
		}
	],
	"accessors":[
		{
			"bufferView":0,
			"componentType":5126,
			"count":26,
			"max":[
				0.6439857482910156,
				4.445721626281738,
				2.2007462978363037
			],
			"min":[
				-0.44756418466567993,
				3.8790111541748047,
				0.009871864691376686
			],
			"type":"VEC3"
		},
		{
			"bufferView":1,
			"componentType":5126,
			"count":26,
			"type":"VEC3"
		},
		{
			"bufferView":2,
			"componentType":5126,
			"count":26,
			"type":"VEC2"
		},
		{
			"bufferView":3,
			"componentType":5123,
			"count":36,
			"type":"SCALAR"
		},
		{
			"bufferView":4,
			"componentType":5126,
			"count":26,
			"max":[
				0.05114433914422989,
				4.914997100830078,
				0.08034273982048035
			],
			"min":[
				-1.4886956214904785,
				4.426229000091553,
				-1.187506914138794
			],
			"type":"VEC3"
		},
		{
			"bufferView":5,
			"componentType":5126,
			"count":26,
			"type":"VEC3"
		},
		{
			"bufferView":6,
			"componentType":5126,
			"count":26,
			"type":"VEC2"
		},
		{
			"bufferView":7,
			"componentType":5123,
			"count":36,
			"type":"SCALAR"
		},
		{
			"bufferView":8,
			"componentType":5126,
			"count":26,
			"max":[
				1.126063585281372,
				4.069068908691406,
				-0.006253447849303484
			],
			"min":[
				-0.015145085752010345,
				3.6290123462677,
				-1.3940883874893188
			],
			"type":"VEC3"
		},
		{
			"bufferView":9,
			"componentType":5126,
			"count":26,
			"type":"VEC3"
		},
		{
			"bufferView":10,
			"componentType":5126,
			"count":26,
			"type":"VEC2"
		},
		{
			"bufferView":11,
			"componentType":5123,
			"count":36,
			"type":"SCALAR"
		},
		{
			"bufferView":12,
			"componentType":5126,
			"count":26,
			"max":[
				1.8635456562042236,
				3.5168325901031494,
				0.051585257053375244
			],
			"min":[
				0.06618145108222961,
				2.9214067459106445,
				-1.5051056146621704
			],
			"type":"VEC3"
		},
		{
			"bufferView":13,
			"componentType":5126,
			"count":26,
			"type":"VEC3"
		},
		{
			"bufferView":14,
			"componentType":5126,
			"count":26,
			"type":"VEC2"
		},
		{
			"bufferView":15,
			"componentType":5126,
			"count":26,
			"max":[
				1.7317780256271362,
				2.684765577316284,
				0.8208407759666443
			],
			"min":[
				0.06559038162231445,
				2.2300310134887695,
				-0.2514949440956116
			],
			"type":"VEC3"
		},
		{
			"bufferView":16,
			"componentType":5126,
			"count":26,
			"type":"VEC3"
		},
		{
			"bufferView":17,
			"componentType":5126,
			"count":26,
			"type":"VEC2"
		},
		{
			"bufferView":18,
			"componentType":5123,
			"count":36,
			"type":"SCALAR"
		},
		{
			"bufferView":19,
			"componentType":5126,
			"count":26,
			"max":[
				0.6737278699874878,
				2.3901660442352295,
				1.6032522916793823
			],
			"min":[
				-0.24333474040031433,
				1.9698069095611572,
				0.007191692013293505
			],
			"type":"VEC3"
		},
		{
			"bufferView":20,
			"componentType":5126,
			"count":26,
			"type":"VEC3"
		},
		{
			"bufferView":21,
			"componentType":5126,
			"count":26,
			"type":"VEC2"
		},
		{
			"bufferView":22,
			"componentType":5126,
			"count":26,
			"max":[
				1.9806785583496094,
				3.8039209842681885,
				0.8726750612258911
			],
			"min":[
				0.06670687347650528,
				3.2888619899749756,
				-0.31379935145378113
			],
			"type":"VEC3"
		},
		{
			"bufferView":23,
			"componentType":5126,
			"count":26,
			"type":"VEC3"
		},
		{
			"bufferView":24,
			"componentType":5126,
			"count":26,
			"type":"VEC2"
		},
		{
			"bufferView":25,
			"componentType":5126,
			"count":26,
			"max":[
				0.05100400000810623,
				2.89070987701416,
				0.8967376947402954
			],
			"min":[
				-1.5199816226959229,
				2.4464516639709473,
				-0.19358401000499725
			],
			"type":"VEC3"
		},
		{
			"bufferView":26,
			"componentType":5126,
			"count":26,
			"type":"VEC3"
		},
		{
			"bufferView":27,
			"componentType":5126,
			"count":26,
			"type":"VEC2"
		},
		{
			"bufferView":28,
			"componentType":5126,
			"count":26,
			"max":[
				2.2039263248443604,
				5.537391662597656,
				0.25060203671455383
			],
			"min":[
				0.06770829856395721,
				4.928173542022705,
				-1.2550063133239746
			],
			"type":"VEC3"
		},
		{
			"bufferView":29,
			"componentType":5126,
			"count":26,
			"type":"VEC3"
		},
		{
			"bufferView":30,
			"componentType":5126,
			"count":26,
			"type":"VEC2"
		},
		{
			"bufferView":31,
			"componentType":5126,
			"count":26,
			"max":[
				0.04992634430527687,
				3.762108325958252,
				0.7345641851425171
			],
			"min":[
				-1.7602249383926392,
				3.2827885150909424,
				-0.3289640247821808
			],
			"type":"VEC3"
		},
		{
			"bufferView":32,
			"componentType":5126,
			"count":26,
			"type":"VEC3"
		},
		{
			"bufferView":33,
			"componentType":5126,
			"count":26,
			"type":"VEC2"
		},
		{
			"bufferView":34,
			"componentType":5123,
			"count":36,
			"type":"SCALAR"
		},
		{
			"bufferView":35,
			"componentType":5126,
			"count":26,
			"max":[
				0.11229930073022842,
				3.347036123275757,
				1.4077192544937134
			],
			"min":[
				-1.0759766101837158,
				2.891223669052124,
				0.006314591970294714
			],
			"type":"VEC3"
		},
		{
			"bufferView":36,
			"componentType":5126,
			"count":26,
			"type":"VEC3"
		},
		{
			"bufferView":37,
			"componentType":5126,
			"count":26,
			"type":"VEC2"
		},
		{
			"bufferView":38,
			"componentType":5126,
			"count":26,
			"max":[
				0.476963073015213,
				4.265769958496094,
				-0.008535751141607761
			],
			"min":[
				-0.5002148747444153,
				3.774783134460449,
				-1.902884840965271
			],
			"type":"VEC3"
		},
		{
			"bufferView":39,
			"componentType":5126,
			"count":26,
			"type":"VEC3"
		},
		{
			"bufferView":40,
			"componentType":5126,
			"count":26,
			"type":"VEC2"
		},
		{
			"bufferView":41,
			"componentType":5123,
			"count":36,
			"type":"SCALAR"
		},
		{
			"bufferView":42,
			"componentType":5126,
			"count":26,
			"max":[
				1.8376281261444092,
				3.907569169998169,
				1.6024391651153564
			],
			"min":[
				0.06606519222259521,
				3.2940313816070557,
				-0.008671760559082031
			],
			"type":"VEC3"
		},
		{
			"bufferView":43,
			"componentType":5126,
			"count":26,
			"type":"VEC3"
		},
		{
			"bufferView":44,
			"componentType":5126,
			"count":26,
			"type":"VEC2"
		},
		{
			"bufferView":45,
			"componentType":5126,
			"count":26,
			"max":[
				1.9066132307052612,
				4.298709869384766,
				0.7134776711463928
			],
			"min":[
				0.06637464463710785,
				3.8137967586517334,
				-0.34623780846595764
			],
			"type":"VEC3"
		},
		{
			"bufferView":46,
			"componentType":5126,
			"count":26,
			"type":"VEC3"
		},
		{
			"bufferView":47,
			"componentType":5126,
			"count":26,
			"type":"VEC2"
		},
		{
			"bufferView":48,
			"componentType":5126,
			"count":26,
			"max":[
				1.9004065990447998,
				2.533080816268921,
				0.3011682331562042
			],
			"min":[
				0.06634680181741714,
				2.03965425491333,
				-0.8349120616912842
			],
			"type":"VEC3"
		},
		{
			"bufferView":49,
			"componentType":5126,
			"count":26,
			"type":"VEC3"
		},
		{
			"bufferView":50,
			"componentType":5126,
			"count":26,
			"type":"VEC2"
		},
		{
			"bufferView":51,
			"componentType":5126,
			"count":26,
			"max":[
				0.6643152832984924,
				2.489057779312134,
				-0.00766320526599884
			],
			"min":[
				-0.2807462811470032,
				2.0441231727600098,
				-1.7083672285079956
			],
			"type":"VEC3"
		},
		{
			"bufferView":52,
			"componentType":5126,
			"count":26,
			"type":"VEC3"
		},
		{
			"bufferView":53,
			"componentType":5126,
			"count":26,
			"type":"VEC2"
		},
		{
			"bufferView":54,
			"componentType":5126,
			"count":26,
			"max":[
				1.6006581783294678,
				3.3290858268737793,
				0.21649104356765747
			],
			"min":[
				0.06500222533941269,
				2.904935121536255,
				-0.7996889352798462
			],
			"type":"VEC3"
		},
		{
			"bufferView":55,
			"componentType":5126,
			"count":26,
			"type":"VEC3"
		},
		{
			"bufferView":56,
			"componentType":5126,
			"count":26,
			"type":"VEC2"
		},
		{
			"bufferView":57,
			"componentType":5126,
			"count":26,
			"max":[
				0.04967058077454567,
				5.238287925720215,
				0.2324579805135727
			],
			"min":[
				-1.8172426223754883,
				4.7112956047058105,
				-1.0588644742965698
			],
			"type":"VEC3"
		},
		{
			"bufferView":58,
			"componentType":5126,
			"count":26,
			"type":"VEC3"
		},
		{
			"bufferView":59,
			"componentType":5126,
			"count":26,
			"type":"VEC2"
		},
		{
			"bufferView":60,
			"componentType":5126,
			"count":26,
			"max":[
				0.048899270594120026,
				5.277590751647949,
				1.1825933456420898
			],
			"min":[
				-1.9891916513442993,
				4.698502540588379,
				-0.2443256974220276
			],
			"type":"VEC3"
		},
		{
			"bufferView":61,
			"componentType":5126,
			"count":26,
			"type":"VEC3"
		},
		{
			"bufferView":62,
			"componentType":5126,
			"count":26,
			"type":"VEC2"
		},
		{
			"bufferView":63,
			"componentType":5126,
			"count":26,
			"max":[
				2.093533754348755,
				5.124685287475586,
				0.5317622423171997
			],
			"min":[
				0.06721311062574387,
				4.600655555725098,
				-0.4712617099285126
			],
			"type":"VEC3"
		},
		{
			"bufferView":64,
			"componentType":5126,
			"count":26,
			"type":"VEC3"
		},
		{
			"bufferView":65,
			"componentType":5126,
			"count":26,
			"type":"VEC2"
		},
		{
			"bufferView":66,
			"componentType":5126,
			"count":80,
			"max":[
				0.14000940322875977,
				6.204575538635254,
				0.14000940322875977
			],
			"min":[
				-0.14000940322875977,
				0.6958098411560059,
				-0.14000940322875977
			],
			"type":"VEC3"
		},
		{
			"bufferView":67,
			"componentType":5126,
			"count":80,
			"type":"VEC3"
		},
		{
			"bufferView":68,
			"componentType":5126,
			"count":80,
			"type":"VEC2"
		},
		{
			"bufferView":69,
			"componentType":5123,
			"count":132,
			"type":"SCALAR"
		},
		{
			"bufferView":70,
			"componentType":5126,
			"count":48,
			"max":[
				1,
				2.0539278984069824,
				1
			],
			"min":[
				-1,
				0.05392801761627197,
				-1
			],
			"type":"VEC3"
		},
		{
			"bufferView":71,
			"componentType":5126,
			"count":48,
			"type":"VEC3"
		},
		{
			"bufferView":72,
			"componentType":5126,
			"count":48,
			"type":"VEC2"
		},
		{
			"bufferView":73,
			"componentType":5123,
			"count":84,
			"type":"SCALAR"
		}
	],
	"bufferViews":[
		{
			"buffer":0,
			"byteLength":312,
			"byteOffset":0,
			"target":34962
		},
		{
			"buffer":0,
			"byteLength":312,
			"byteOffset":312,
			"target":34962
		},
		{
			"buffer":0,
			"byteLength":208,
			"byteOffset":624,
			"target":34962
		},
		{
			"buffer":0,
			"byteLength":72,
			"byteOffset":832,
			"target":34963
		},
		{
			"buffer":0,
			"byteLength":312,
			"byteOffset":904,
			"target":34962
		},
		{
			"buffer":0,
			"byteLength":312,
			"byteOffset":1216,
			"target":34962
		},
		{
			"buffer":0,
			"byteLength":208,
			"byteOffset":1528,
			"target":34962
		},
		{
			"buffer":0,
			"byteLength":72,
			"byteOffset":1736,
			"target":34963
		},
		{
			"buffer":0,
			"byteLength":312,
			"byteOffset":1808,
			"target":34962
		},
		{
			"buffer":0,
			"byteLength":312,
			"byteOffset":2120,
			"target":34962
		},
		{
			"buffer":0,
			"byteLength":208,
			"byteOffset":2432,
			"target":34962
		},
		{
			"buffer":0,
			"byteLength":72,
			"byteOffset":2640,
			"target":34963
		},
		{
			"buffer":0,
			"byteLength":312,
			"byteOffset":2712,
			"target":34962
		},
		{
			"buffer":0,
			"byteLength":312,
			"byteOffset":3024,
			"target":34962
		},
		{
			"buffer":0,
			"byteLength":208,
			"byteOffset":3336,
			"target":34962
		},
		{
			"buffer":0,
			"byteLength":312,
			"byteOffset":3544,
			"target":34962
		},
		{
			"buffer":0,
			"byteLength":312,
			"byteOffset":3856,
			"target":34962
		},
		{
			"buffer":0,
			"byteLength":208,
			"byteOffset":4168,
			"target":34962
		},
		{
			"buffer":0,
			"byteLength":72,
			"byteOffset":4376,
			"target":34963
		},
		{
			"buffer":0,
			"byteLength":312,
			"byteOffset":4448,
			"target":34962
		},
		{
			"buffer":0,
			"byteLength":312,
			"byteOffset":4760,
			"target":34962
		},
		{
			"buffer":0,
			"byteLength":208,
			"byteOffset":5072,
			"target":34962
		},
		{
			"buffer":0,
			"byteLength":312,
			"byteOffset":5280,
			"target":34962
		},
		{
			"buffer":0,
			"byteLength":312,
			"byteOffset":5592,
			"target":34962
		},
		{
			"buffer":0,
			"byteLength":208,
			"byteOffset":5904,
			"target":34962
		},
		{
			"buffer":0,
			"byteLength":312,
			"byteOffset":6112,
			"target":34962
		},
		{
			"buffer":0,
			"byteLength":312,
			"byteOffset":6424,
			"target":34962
		},
		{
			"buffer":0,
			"byteLength":208,
			"byteOffset":6736,
			"target":34962
		},
		{
			"buffer":0,
			"byteLength":312,
			"byteOffset":6944,
			"target":34962
		},
		{
			"buffer":0,
			"byteLength":312,
			"byteOffset":7256,
			"target":34962
		},
		{
			"buffer":0,
			"byteLength":208,
			"byteOffset":7568,
			"target":34962
		},
		{
			"buffer":0,
			"byteLength":312,
			"byteOffset":7776,
			"target":34962
		},
		{
			"buffer":0,
			"byteLength":312,
			"byteOffset":8088,
			"target":34962
		},
		{
			"buffer":0,
			"byteLength":208,
			"byteOffset":8400,
			"target":34962
		},
		{
			"buffer":0,
			"byteLength":72,
			"byteOffset":8608,
			"target":34963
		},
		{
			"buffer":0,
			"byteLength":312,
			"byteOffset":8680,
			"target":34962
		},
		{
			"buffer":0,
			"byteLength":312,
			"byteOffset":8992,
			"target":34962
		},
		{
			"buffer":0,
			"byteLength":208,
			"byteOffset":9304,
			"target":34962
		},
		{
			"buffer":0,
			"byteLength":312,
			"byteOffset":9512,
			"target":34962
		},
		{
			"buffer":0,
			"byteLength":312,
			"byteOffset":9824,
			"target":34962
		},
		{
			"buffer":0,
			"byteLength":208,
			"byteOffset":10136,
			"target":34962
		},
		{
			"buffer":0,
			"byteLength":72,
			"byteOffset":10344,
			"target":34963
		},
		{
			"buffer":0,
			"byteLength":312,
			"byteOffset":10416,
			"target":34962
		},
		{
			"buffer":0,
			"byteLength":312,
			"byteOffset":10728,
			"target":34962
		},
		{
			"buffer":0,
			"byteLength":208,
			"byteOffset":11040,
			"target":34962
		},
		{
			"buffer":0,
			"byteLength":312,
			"byteOffset":11248,
			"target":34962
		},
		{
			"buffer":0,
			"byteLength":312,
			"byteOffset":11560,
			"target":34962
		},
		{
			"buffer":0,
			"byteLength":208,
			"byteOffset":11872,
			"target":34962
		},
		{
			"buffer":0,
			"byteLength":312,
			"byteOffset":12080,
			"target":34962
		},
		{
			"buffer":0,
			"byteLength":312,
			"byteOffset":12392,
			"target":34962
		},
		{
			"buffer":0,
			"byteLength":208,
			"byteOffset":12704,
			"target":34962
		},
		{
			"buffer":0,
			"byteLength":312,
			"byteOffset":12912,
			"target":34962
		},
		{
			"buffer":0,
			"byteLength":312,
			"byteOffset":13224,
			"target":34962
		},
		{
			"buffer":0,
			"byteLength":208,
			"byteOffset":13536,
			"target":34962
		},
		{
			"buffer":0,
			"byteLength":312,
			"byteOffset":13744,
			"target":34962
		},
		{
			"buffer":0,
			"byteLength":312,
			"byteOffset":14056,
			"target":34962
		},
		{
			"buffer":0,
			"byteLength":208,
			"byteOffset":14368,
			"target":34962
		},
		{
			"buffer":0,
			"byteLength":312,
			"byteOffset":14576,
			"target":34962
		},
		{
			"buffer":0,
			"byteLength":312,
			"byteOffset":14888,
			"target":34962
		},
		{
			"buffer":0,
			"byteLength":208,
			"byteOffset":15200,
			"target":34962
		},
		{
			"buffer":0,
			"byteLength":312,
			"byteOffset":15408,
			"target":34962
		},
		{
			"buffer":0,
			"byteLength":312,
			"byteOffset":15720,
			"target":34962
		},
		{
			"buffer":0,
			"byteLength":208,
			"byteOffset":16032,
			"target":34962
		},
		{
			"buffer":0,
			"byteLength":312,
			"byteOffset":16240,
			"target":34962
		},
		{
			"buffer":0,
			"byteLength":312,
			"byteOffset":16552,
			"target":34962
		},
		{
			"buffer":0,
			"byteLength":208,
			"byteOffset":16864,
			"target":34962
		},
		{
			"buffer":0,
			"byteLength":960,
			"byteOffset":17072,
			"target":34962
		},
		{
			"buffer":0,
			"byteLength":960,
			"byteOffset":18032,
			"target":34962
		},
		{
			"buffer":0,
			"byteLength":640,
			"byteOffset":18992,
			"target":34962
		},
		{
			"buffer":0,
			"byteLength":264,
			"byteOffset":19632,
			"target":34963
		},
		{
			"buffer":0,
			"byteLength":576,
			"byteOffset":19896,
			"target":34962
		},
		{
			"buffer":0,
			"byteLength":576,
			"byteOffset":20472,
			"target":34962
		},
		{
			"buffer":0,
			"byteLength":384,
			"byteOffset":21048,
			"target":34962
		},
		{
			"buffer":0,
			"byteLength":168,
			"byteOffset":21432,
			"target":34963
		}
	],
	"samplers":[
		{
			"magFilter":9729,
			"minFilter":9987
		}
	],
	"buffers":[
		{
			"byteLength":21600,
			"uri":"plant.bin"
		}
	]
}
