{
	"asset":{
		"generator":"Khronos glTF Blender I/O v4.5.47",
		"version":"2.0"
	},
	"scene":0,
	"scenes":[
		{
			"name":"Scene",
			"nodes":[
				0,
				1,
				2,
				3,
				4,
				5,
				6
			]
		}
	],
	"nodes":[
		{
			"mesh":0,
			"name":"Cube.041"
		},
		{
			"mesh":1,
			"name":"Cylinder.015"
		},
		{
			"mesh":2,
			"name":"Cylinder.016"
		},
		{
			"mesh":3,
			"name":"Cube.042"
		},
		{
			"mesh":4,
			"name":"Cylinder.017"
		},
		{
			"mesh":5,
			"name":"Cylinder.018"
		},
		{
			"mesh":6,
			"name":"Cube.043"
		}
	],
	"materials":[
		{
			"doubleSided":true,
			"name":"Material",
			"pbrMetallicRoughness":{
				"baseColorTexture":{
					"index":0
				},
				"metallicFactor":0,
				"roughnessFactor":0.5
			}
		}
	],
	"meshes":[
		{
			"name":"Cube.007",
			"primitives":[
				{
					"attributes":{
						"POSITION":0,
						"NORMAL":1,
						"TEXCOORD_0":2
					},
					"indices":3,
					"material":0
				}
			]
		},
		{
			"name":"Cylinder.016",
			"primitives":[
				{
					"attributes":{
						"POSITION":4,
						"NORMAL":5,
						"TEXCOORD_0":6
					},
					"indices":7,
					"material":0
				}
			]
		},
		{
			"name":"Cylinder.017",
			"primitives":[
				{
					"attributes":{
						"POSITION":8,
						"NORMAL":9,
						"TEXCOORD_0":10
					},
					"indices":11,
					"material":0
				}
			]
		},
		{
			"name":"Cube.015",
			"primitives":[
				{
					"attributes":{
						"POSITION":12,
						"NORMAL":13,
						"TEXCOORD_0":14
					},
					"indices":15,
					"material":0
				}
			]
		},
		{
			"name":"Cylinder.018",
			"primitives":[
				{
					"attributes":{
						"POSITION":16,
						"NORMAL":17,
						"TEXCOORD_0":18
					},
					"indices":19,
					"material":0
				}
			]
		},
		{
			"name":"Cylinder.019",
			"primitives":[
				{
					"attributes":{
						"POSITION":20,
						"NORMAL":21,
						"TEXCOORD_0":22
					},
					"indices":19,
					"material":0
				}
			]
		},
		{
			"name":"Cube.026",
			"primitives":[
				{
					"attributes":{
						"POSITION":23,
						"NORMAL":24,
						"TEXCOORD_0":25
					},
					"indices":26,
					"material":0
				}
			]
		}
	],
	"textures":[
		{
			"sampler":0,
			"source":0
		}
	],
	"images":[
		{
			"mimeType":"image/png",
			"name":"texture",
			"uri":"texture.png"
		}
	],
	"accessors":[
		{
			"bufferView":0,
			"componentType":5126,
			"count":52,
			"max":[
				1,
				1.312531590461731,
				1
			],
			"min":[
				-1,
				-3.829235076904297,
				-1
			],
			"type":"VEC3"
		},
		{
			"bufferView":1,
			"componentType":5126,
			"count":52,
			"type":"VEC3"
		},
		{
			"bufferView":2,
			"componentType":5126,
			"count":52,
			"type":"VEC2"
		},
		{
			"bufferView":3,
			"componentType":5123,
			"count":84,
			"type":"SCALAR"
		},
		{
			"bufferView":4,
			"componentType":5126,
			"count":168,
			"max":[
				2.1271657943725586,
				6.130753517150879,
				2.1271657943725586
			],
			"min":[
				-2.1271657943725586,
				1.3509265184402466,
				-2.1271657943725586
			],
			"type":"VEC3"
		},
		{
			"bufferView":5,
			"componentType":5126,
			"count":168,
			"type":"VEC3"
		},
		{
			"bufferView":6,
			"componentType":5126,
			"count":168,
			"type":"VEC2"
		},
		{
			"bufferView":7,
			"componentType":5123,
			"count":276,
			"type":"SCALAR"
		},
		{
			"bufferView":8,
			"componentType":5126,
			"count":240,
			"max":[
				1.4112281799316406,
				0.46350768208503723,
				0.25022172927856445
			],
			"min":[
				-1.4112281799316406,
				-1.5010433197021484,
				-0.25022172927856445
			],
			"type":"VEC3"
		},
		{
			"bufferView":9,
			"componentType":5126,
			"count":240,
			"type":"VEC3"
		},
		{
			"bufferView":10,
			"componentType":5126,
			"count":240,
			"type":"VEC2"
		},
		{
			"bufferView":11,
			"componentType":5123,
			"count":408,
			"type":"SCALAR"
		},
		{
			"bufferView":12,
			"componentType":5126,
			"count":24,
			"max":[
				-0.1703834980726242,
				-0.026147693395614624,
				0.5960720181465149
			],
			"min":[
				-0.40892696380615234,
				-0.6075295209884644,
				-0.24561958014965057
			],
			"type":"VEC3"
		},
		{
			"bufferView":13,
			"componentType":5126,
			"count":24,
			"type":"VEC3"
		},
		{
			"bufferView":14,
			"componentType":5126,
			"count":24,
			"type":"VEC2"
		},
		{
			"bufferView":15,
			"componentType":5123,
			"count":36,
			"type":"SCALAR"
		},
		{
			"bufferView":16,
			"componentType":5126,
			"count":72,
			"max":[
				1.5385912656784058,
				6.260607719421387,
				1.5385912656784058
			],
			"min":[
				-1.5385912656784058,
				5.979894638061523,
				-1.5385912656784058
			],
			"type":"VEC3"
		},
		{
			"bufferView":17,
			"componentType":5126,
			"count":72,
			"type":"VEC3"
		},
		{
			"bufferView":18,
			"componentType":5126,
			"count":72,
			"type":"VEC2"
		},
		{
			"bufferView":19,
			"componentType":5123,
			"count":132,
			"type":"SCALAR"
		},
		{
			"bufferView":20,
			"componentType":5126,
			"count":72,
			"max":[
				1.766666054725647,
				1.4954229593276978,
				1.766666054725647
			],
			"min":[
				-1.766666054725647,
				1.192919135093689,
				-1.766666054725647
			],
			"type":"VEC3"
		},
		{
			"bufferView":21,
			"componentType":5126,
			"count":72,
			"type":"VEC3"
		},
		{
			"bufferView":22,
			"componentType":5126,
			"count":72,
			"type":"VEC2"
		},
		{
			"bufferView":23,
			"componentType":5126,
			"count":24,
			"max":[
				0.40892696380615234,
				-0.026147693395614624,
				0.5960720181465149
			],
			"min":[
				0.1703834980726242,
				-0.6075295209884644,
				-0.24561958014965057
			],
			"type":"VEC3"
		},
		{
			"bufferView":24,
			"componentType":5126,
			"count":24,
			"type":"VEC3"
		},
		{
			"bufferView":25,
			"componentType":5126,
			"count":24,
			"type":"VEC2"
		},
		{
			"bufferView":26,
			"componentType":5123,
			"count":36,
			"type":"SCALAR"
		}
	],
	"bufferViews":[
		{
			"buffer":0,
			"byteLength":624,
			"byteOffset":0,
			"target":34962
		},
		{
			"buffer":0,
			"byteLength":624,
			"byteOffset":624,
			"target":34962
		},
		{
			"buffer":0,
			"byteLength":416,
			"byteOffset":1248,
			"target":34962
		},
		{
			"buffer":0,
			"byteLength":168,
			"byteOffset":1664,
			"target":34963
		},
		{
			"buffer":0,
			"byteLength":2016,
			"byteOffset":1832,
			"target":34962
		},
		{
			"buffer":0,
			"byteLength":2016,
			"byteOffset":3848,
			"target":34962
		},
		{
			"buffer":0,
			"byteLength":1344,
			"byteOffset":5864,
			"target":34962
		},
		{
			"buffer":0,
			"byteLength":552,
			"byteOffset":7208,
			"target":34963
		},
		{
			"buffer":0,
			"byteLength":2880,
			"byteOffset":7760,
			"target":34962
		},
		{
			"buffer":0,
			"byteLength":2880,
			"byteOffset":10640,
			"target":34962
		},
		{
			"buffer":0,
			"byteLength":1920,
			"byteOffset":13520,
			"target":34962
		},
		{
			"buffer":0,
			"byteLength":816,
			"byteOffset":15440,
			"target":34963
		},
		{
			"buffer":0,
			"byteLength":288,
			"byteOffset":16256,
			"target":34962
		},
		{
			"buffer":0,
			"byteLength":288,
			"byteOffset":16544,
			"target":34962
		},
		{
			"buffer":0,
			"byteLength":192,
			"byteOffset":16832,
			"target":34962
		},
		{
			"buffer":0,
			"byteLength":72,
			"byteOffset":17024,
			"target":34963
		},
		{
			"buffer":0,
			"byteLength":864,
			"byteOffset":17096,
			"target":34962
		},
		{
			"buffer":0,
			"byteLength":864,
			"byteOffset":17960,
			"target":34962
		},
		{
			"buffer":0,
			"byteLength":576,
			"byteOffset":18824,
			"target":34962
		},
		{
			"buffer":0,
			"byteLength":264,
			"byteOffset":19400,
			"target":34963
		},
		{
			"buffer":0,
			"byteLength":864,
			"byteOffset":19664,
			"target":34962
		},
		{
			"buffer":0,
			"byteLength":864,
			"byteOffset":20528,
			"target":34962
		},
		{
			"buffer":0,
			"byteLength":576,
			"byteOffset":21392,
			"target":34962
		},
		{
			"buffer":0,
			"byteLength":288,
			"byteOffset":21968,
			"target":34962
		},
		{
			"buffer":0,
			"byteLength":288,
			"byteOffset":22256,
			"target":34962
		},
		{
			"buffer":0,
			"byteLength":192,
			"byteOffset":22544,
			"target":34962
		},
		{
			"buffer":0,
			"byteLength":72,
			"byteOffset":22736,
			"target":34963
		}
	],
	"samplers":[
		{
			"magFilter":9729,
			"minFilter":9987
		}
	],
	"buffers":[
		{
			"byteLength":22808,
			"uri":"cooler.bin"
		}
	]
}
